<?xml version="1.0" encoding="UTF-8" standalone="no"?>
<!-- Generator: Adobe Illustrator 28.2.0, SVG Export Plug-In . SVG Version: 6.00 Build 0)  -->

<svg
   version="1.1"
   id="Layer_1"
   x="0px"
   y="0px"
   viewBox="0 0 1366 768"
   style="enable-background:new 0 0 1366 768;"
   xml:space="preserve"
   sodipodi:docname="cristalline.svg"
   inkscape:version="1.2.2 (b0a8486541, 2022-12-01)"
   xmlns:inkscape="http://www.inkscape.org/namespaces/inkscape"
   xmlns:sodipodi="http://sodipodi.sourceforge.net/DTD/sodipodi-0.dtd"
   xmlns:xlink="http://www.w3.org/1999/xlink"
   xmlns="http://www.w3.org/2000/svg"
   xmlns:svg="http://www.w3.org/2000/svg"><sodipodi:namedview
   id="namedview1"
   pagecolor="#ffffff"
   bordercolor="#000000"
   borderopacity="0.25"
   inkscape:showpageshadow="2"
   inkscape:pageopacity="0.0"
   inkscape:pagecheckerboard="0"
   inkscape:deskcolor="#d1d1d1"
   inkscape:zoom="1.2518302"
   inkscape:cx="407.00408"
   inkscape:cy="272.40116"
   inkscape:window-width="1920"
   inkscape:window-height="998"
   inkscape:window-x="0"
   inkscape:window-y="0"
   inkscape:window-maximized="1"
   inkscape:current-layer="Layer_1"
   showgrid="false" /><defs
   id="defs1"><marker
     style="overflow:visible"
     id="marker21"
     refX="0"
     refY="0"
     orient="auto-start-reverse"
     inkscape:stockid="Concave triangle arrow"
     markerWidth="1"
     markerHeight="1"
     viewBox="0 0 1 1"
     inkscape:isstock="true"
     inkscape:collect="always"
     preserveAspectRatio="xMidYMid"><path
       transform="scale(0.7)"
       d="M -2,-4 9,0 -2,4 c 2,-2.33 2,-5.66 0,-8 z"
       style="fill:context-stroke;fill-rule:evenodd;stroke:none"
       id="path21" /></marker><marker
     style="overflow:visible"
     id="marker20"
     refX="0"
     refY="0"
     orient="auto-start-reverse"
     inkscape:stockid="Concave triangle arrow"
     markerWidth="1"
     markerHeight="1"
     viewBox="0 0 1 1"
     inkscape:isstock="true"
     inkscape:collect="always"
     preserveAspectRatio="xMidYMid"><path
       transform="scale(0.7)"
       d="M -2,-4 9,0 -2,4 c 2,-2.33 2,-5.66 0,-8 z"
       style="fill:context-stroke;fill-rule:evenodd;stroke:none"
       id="path20" /></marker><marker
     style="overflow:visible"
     id="marker5"
     refX="0"
     refY="0"
     orient="auto-start-reverse"
     inkscape:stockid="Concave triangle arrow"
     markerWidth="1"
     markerHeight="1"
     viewBox="0 0 1 1"
     inkscape:isstock="true"
     inkscape:collect="always"
     preserveAspectRatio="xMidYMid"><path
       transform="scale(0.7)"
       d="M -2,-4 9,0 -2,4 c 2,-2.33 2,-5.66 0,-8 z"
       style="fill:context-stroke;fill-rule:evenodd;stroke:none"
       id="path5" /></marker><marker
     style="overflow:visible"
     id="ConcaveTriangle"
     refX="0"
     refY="0"
     orient="auto-start-reverse"
     inkscape:stockid="Concave triangle arrow"
     markerWidth="1"
     markerHeight="1"
     viewBox="0 0 1 1"
     inkscape:isstock="true"
     inkscape:collect="always"
     preserveAspectRatio="xMidYMid"><path
       transform="scale(0.7)"
       d="M -2,-4 9,0 -2,4 c 2,-2.33 2,-5.66 0,-8 z"
       style="fill:context-stroke;fill-rule:evenodd;stroke:none"
       id="path7" /></marker><linearGradient
     id="swatch2"
     inkscape:swatch="solid"><stop
       style="stop-color:#b30000;stop-opacity:0.05911728;"
       offset="0"
       id="stop2" /></linearGradient><pattern
     inkscape:collect="always"
     xlink:href="#Hexagons"
     preserveAspectRatio="xMidYMid"
     id="pattern2"
     patternTransform="matrix(3.666,0,0,3.666,1,1)"
     x="0"
     y="11" /><pattern
     patternUnits="userSpaceOnUse"
     width="100"
     height="87"
     preserveAspectRatio="xMidYMid"
     patternTransform="translate(1,1) scale(0.5,0.5)"
     style="fill:#aaaaaa"
     id="Hexagons"
     inkscape:label="Hexagons packing grid"
     inkscape:collect="always"
     inkscape:isstock="true"><path
       id="path27"
       style="stroke:none"
       d="M 23.246093,0 0,13.382812 V 44.689453 L 0.0839844,44.640625 24.033203,58.505859 24.001953,86.332031 22.841796,87 h 4.478516 L 26.068359,86.275391 26.099609,58.449219 50.083984,44.640625 74.033203,58.505859 74.001953,86.332031 72.841796,87 h 4.478516 L 76.068359,86.275391 76.099609,58.449219 100,44.689453 V 13.365234 L 76.919921,0 H 73.246093 L 50.015625,13.373047 26.919921,0 Z M 25.083984,1.25 49.033203,15.115234 49.001953,42.941406 25.017578,56.75 1.0019531,42.845703 l 0.033203,-27.75 z m 50,0 24.017576,13.904297 -0.0352,27.75 L 75.017578,56.75 51.068359,42.884766 51.099609,15.058594 Z" /></pattern></defs>
<rect
   style="opacity:0.79;fill:url(#pattern2);fill-opacity:1;stroke:#000000;stroke-width:1.98049;stroke-miterlimit:5.2;paint-order:stroke fill markers"
   id="rect1"
   width="471.07925"
   height="389.77643"
   x="149.16275"
   y="106.47525"
   ry="0" /><circle
   style="opacity:0.79;fill:#b30000;fill-opacity:1;stroke:#000000;stroke-width:0.0683238;stroke-miterlimit:5.2;stroke-dasharray:none;paint-order:stroke fill markers"
   id="path2-2"
   cx="551.5"
   cy="413.5"
   r="7.465838" /><circle
   style="opacity:0.79;fill:#b30000;fill-opacity:1;stroke:#000000;stroke-width:0.0683238;stroke-miterlimit:5.2;stroke-dasharray:none;paint-order:stroke fill markers"
   id="path2-70"
   cx="459.26923"
   cy="254.42041"
   r="7.465838" /><circle
   style="opacity:0.79;fill:#b30000;fill-opacity:1;stroke:#000000;stroke-width:0.0683238;stroke-miterlimit:5.2;stroke-dasharray:none;paint-order:stroke fill markers"
   id="path2-9"
   cx="276.50006"
   cy="253.5"
   r="7.465838" /><circle
   style="opacity:0.79;fill:#b30000;fill-opacity:1;stroke:#000000;stroke-width:0.0683238;stroke-miterlimit:5.2;stroke-dasharray:none;paint-order:stroke fill markers"
   id="path2"
   cx="367.93802"
   cy="412.63138"
   r="7.465838" /><circle
   style="opacity:0.79;fill:#b30000;fill-opacity:1;stroke:#000000;stroke-width:0.0683238;stroke-miterlimit:5.2;stroke-dasharray:none;paint-order:stroke fill markers"
   id="path2-7"
   cx="184.40654"
   cy="413.19315"
   r="7.465838" /><circle
   style="opacity:0.79;fill:#333333;fill-opacity:1;stroke:#000000;stroke-width:0.0683238;stroke-miterlimit:5.2;stroke-dasharray:none;paint-order:stroke fill markers"
   id="path2-7-2-45"
   cx="276.09863"
   cy="360.48236"
   r="7.465838" /><circle
   style="opacity:0.79;fill:#333333;fill-opacity:1;stroke:#000000;stroke-width:0.0683238;stroke-miterlimit:5.2;stroke-dasharray:none;paint-order:stroke fill markers"
   id="path2-7-2-45-7"
   cx="459.72995"
   cy="360.94885"
   r="7.465838" /><circle
   style="opacity:0.79;fill:#333333;fill-opacity:1;stroke:#000000;stroke-width:0.0683238;stroke-miterlimit:5.2;stroke-dasharray:none;paint-order:stroke fill markers"
   id="path2-7-2-6"
   cx="185.04559"
   cy="200.86128"
   r="7.465838" /><circle
   style="opacity:0.79;fill:#333333;fill-opacity:1;stroke:#000000;stroke-width:0.0683238;stroke-miterlimit:5.2;stroke-dasharray:none;paint-order:stroke fill markers"
   id="path2-7-2-63"
   cx="368.00775"
   cy="201.00073"
   r="7.465838" /><circle
   style="opacity:0.79;fill:#333333;fill-opacity:1;stroke:#000000;stroke-width:0.0683238;stroke-miterlimit:5.2;stroke-dasharray:none;paint-order:stroke fill markers"
   id="path2-7-2-61"
   cx="551.03632"
   cy="200.59995"
   r="7.465838" /><path
   style="fill:none;fill-rule:evenodd;stroke:#000000;stroke-width:2.4;stroke-linecap:butt;stroke-linejoin:miter;stroke-dasharray:none;stroke-opacity:1;marker-end:url(#marker5)"
   d="M 364.2185,406.15822 280.21958,259.97316"
   id="path3"
   inkscape:connector-type="polyline"
   inkscape:connector-curvature="0"
   inkscape:connection-start="#path2"
   inkscape:connection-end="#path2-9" /><path
   style="fill:none;fill-rule:evenodd;stroke:#000000;stroke-width:2.4;stroke-linecap:butt;stroke-linejoin:miter;stroke-dasharray:none;stroke-opacity:1;marker-end:url(#ConcaveTriangle)"
   d="M 371.67051,406.16567 455.53674,260.88612"
   id="path4"
   inkscape:connector-type="polyline"
   inkscape:connector-curvature="0"
   inkscape:connection-start="#path2"
   inkscape:connection-end="#path2-70" /><g
   inkscape:label=""
   transform="translate(405.00078,276.51373)"
   id="g9"><g
   fill="#000000"
   fill-opacity="1"
   id="g4"
   transform="matrix(1.33333,0,0,1.33333,-3.75856,-2.6475)">
    <g
   id="use3"
   transform="translate(0.65600002,16.719999)">
      <path
   d="m 11.046875,-12.328125 c -0.25,0.21875 -1.015625,0.953125 -1.015625,1.234375 0,0.203125 0.1875,0.390625 0.40625,0.390625 0.1875,0 0.265625,-0.125 0.40625,-0.328125 0.5,-0.625 1.046875,-1.015625 1.53125,-1.28125 0.203125,-0.125 0.34375,-0.1875 0.34375,-0.40625 0,-0.1875 -0.15625,-0.296875 -0.28125,-0.390625 -0.578125,-0.40625 -0.71875,-0.953125 -0.78125,-1.203125 -0.0625,-0.171875 -0.125,-0.421875 -0.421875,-0.421875 -0.125,0 -0.375,0.09375 -0.375,0.40625 0,0.171875 0.125,0.671875 0.515625,1.234375 H 4.4375 c -0.34375,0 -0.703125,0 -0.703125,0.390625 0,0.375 0.375,0.375 0.703125,0.375 z m 0,0"
   id="path6" />
    </g>
  </g>
  <g
   fill="#000000"
   fill-opacity="1"
   id="g5"
   transform="matrix(1.33333,0,0,1.33333,-3.75856,-2.6475)">
    <g
   id="use4"
   transform="translate(1.990798,16.719999)">
      <path
   d="m 6.21875,-2.453125 c -0.109375,0.34375 -0.109375,0.390625 -0.390625,0.78125 -0.453125,0.578125 -1.359375,1.46875 -2.34375,1.46875 -0.84375,0 -1.3125,-0.765625 -1.3125,-1.984375 0,-1.140625 0.640625,-3.453125 1.03125,-4.3125 C 3.90625,-7.953125 4.875,-8.703125 5.6875,-8.703125 c 1.359375,0 1.625,1.703125 1.625,1.859375 0,0.03125 -0.0625,0.296875 -0.078125,0.34375 z M 7.546875,-7.75 C 7.3125,-8.28125 6.75,-9.109375 5.6875,-9.109375 c -2.34375,0 -4.859375,3.015625 -4.859375,6.078125 0,2.046875 1.203125,3.234375 2.59375,3.234375 1.140625,0 2.109375,-0.890625 2.6875,-1.5625 0.21875,1.21875 1.1875,1.5625 1.796875,1.5625 0.625,0 1.125,-0.375 1.5,-1.109375 0.328125,-0.703125 0.609375,-1.96875 0.609375,-2.046875 0,-0.109375 -0.078125,-0.1875 -0.203125,-0.1875 -0.1875,0 -0.203125,0.109375 -0.296875,0.40625 -0.296875,1.21875 -0.703125,2.53125 -1.546875,2.53125 -0.59375,0 -0.640625,-0.546875 -0.640625,-0.953125 0,-0.46875 0.0625,-0.703125 0.25,-1.515625 0.140625,-0.515625 0.25,-0.96875 0.421875,-1.5625 0.765625,-3.09375 0.9375,-3.84375 0.9375,-3.96875 0,-0.28125 -0.21875,-0.515625 -0.53125,-0.515625 C 7.75,-8.71875 7.578125,-8 7.546875,-7.75 Z m 0,0"
   id="path8" />
    </g>
  </g>
  <g
   fill="#000000"
   fill-opacity="1"
   id="g6"
   transform="matrix(1.33333,0,0,1.33333,-3.75856,-2.6475)">
    <g
   id="use5"
   transform="translate(12.613,19.819)">
      <path
   d="m 4.125,-9.1875 c 0,-0.34375 0,-0.34375 -0.28125,-0.34375 C 3.5,-9.15625 2.78125,-8.625 1.3125,-8.625 v 0.421875 c 0.328125,0 1.046875,0 1.828125,-0.375 v 7.46875 c 0,0.515625 -0.046875,0.6875 -1.296875,0.6875 H 1.390625 V 0 c 0.390625,-0.03125 1.78125,-0.03125 2.25,-0.03125 0.46875,0 1.859375,0 2.234375,0.03125 V -0.421875 H 5.4375 c -1.265625,0 -1.3125,-0.171875 -1.3125,-0.6875 z m 0,0"
   id="path9" />
    </g>
  </g>
</g><g
   inkscape:label=""
   transform="translate(311.5,277.532)"
   id="g16"><g
   fill="#000000"
   fill-opacity="1"
   id="g11"
   transform="matrix(1.33333,0,0,1.33333,-3.75856,-2.6475)">
    <g
   id="g10"
   transform="translate(0.65600002,16.719999)">
      <path
   d="m 11.046875,-12.328125 c -0.25,0.21875 -1.015625,0.953125 -1.015625,1.234375 0,0.203125 0.1875,0.390625 0.40625,0.390625 0.1875,0 0.265625,-0.125 0.40625,-0.328125 0.5,-0.625 1.046875,-1.015625 1.53125,-1.28125 0.203125,-0.125 0.34375,-0.1875 0.34375,-0.40625 0,-0.1875 -0.15625,-0.296875 -0.28125,-0.390625 -0.578125,-0.40625 -0.71875,-0.953125 -0.78125,-1.203125 -0.0625,-0.171875 -0.125,-0.421875 -0.421875,-0.421875 -0.125,0 -0.375,0.09375 -0.375,0.40625 0,0.171875 0.125,0.671875 0.515625,1.234375 H 4.4375 c -0.34375,0 -0.703125,0 -0.703125,0.390625 0,0.375 0.375,0.375 0.703125,0.375 z m 0,0"
   id="path10" />
    </g>
  </g>
  <g
   fill="#000000"
   fill-opacity="1"
   id="g13"
   transform="matrix(1.33333,0,0,1.33333,-3.75856,-2.6475)">
    <g
   id="g12"
   transform="translate(1.990798,16.719999)">
      <path
   d="m 6.21875,-2.453125 c -0.109375,0.34375 -0.109375,0.390625 -0.390625,0.78125 -0.453125,0.578125 -1.359375,1.46875 -2.34375,1.46875 -0.84375,0 -1.3125,-0.765625 -1.3125,-1.984375 0,-1.140625 0.640625,-3.453125 1.03125,-4.3125 C 3.90625,-7.953125 4.875,-8.703125 5.6875,-8.703125 c 1.359375,0 1.625,1.703125 1.625,1.859375 0,0.03125 -0.0625,0.296875 -0.078125,0.34375 z M 7.546875,-7.75 C 7.3125,-8.28125 6.75,-9.109375 5.6875,-9.109375 c -2.34375,0 -4.859375,3.015625 -4.859375,6.078125 0,2.046875 1.203125,3.234375 2.59375,3.234375 1.140625,0 2.109375,-0.890625 2.6875,-1.5625 0.21875,1.21875 1.1875,1.5625 1.796875,1.5625 0.625,0 1.125,-0.375 1.5,-1.109375 0.328125,-0.703125 0.609375,-1.96875 0.609375,-2.046875 0,-0.109375 -0.078125,-0.1875 -0.203125,-0.1875 -0.1875,0 -0.203125,0.109375 -0.296875,0.40625 -0.296875,1.21875 -0.703125,2.53125 -1.546875,2.53125 -0.59375,0 -0.640625,-0.546875 -0.640625,-0.953125 0,-0.46875 0.0625,-0.703125 0.25,-1.515625 0.140625,-0.515625 0.25,-0.96875 0.421875,-1.5625 0.765625,-3.09375 0.9375,-3.84375 0.9375,-3.96875 0,-0.28125 -0.21875,-0.515625 -0.53125,-0.515625 C 7.75,-8.71875 7.578125,-8 7.546875,-7.75 Z m 0,0"
   id="path11" />
    </g>
  </g>
  <g
   fill="#000000"
   fill-opacity="1"
   id="g15"
   transform="matrix(1.33333,0,0,1.33333,-3.75856,-2.6475)">
    <g
   id="g14"
   transform="translate(12.613,19.819)">
      <path
   d="M 6.3125,-2.40625 H 6 c -0.046875,0.234375 -0.15625,1.03125 -0.3125,1.265625 -0.09375,0.125 -0.90625,0.125 -1.34375,0.125 H 1.6875 c 0.390625,-0.328125 1.265625,-1.25 1.640625,-1.59375 2.1875,-2.015625 2.984375,-2.75 2.984375,-4.171875 0,-1.65625 -1.3125,-2.75 -2.96875,-2.75 -1.671875,0 -2.640625,1.40625 -2.640625,2.640625 0,0.734375 0.625,0.734375 0.671875,0.734375 0.296875,0 0.671875,-0.21875 0.671875,-0.671875 C 2.046875,-7.234375 1.78125,-7.5 1.375,-7.5 1.25,-7.5 1.21875,-7.5 1.171875,-7.484375 1.453125,-8.46875 2.21875,-9.125 3.15625,-9.125 4.375,-9.125 5.125,-8.109375 5.125,-6.78125 5.125,-5.5625 4.421875,-4.5 3.59375,-3.578125 L 0.703125,-0.34375 V 0 H 5.9375 Z m 0,0"
   id="path13" />
    </g>
  </g>
</g><g
   inkscape:label=""
   transform="translate(232.08469,206.95319)"
   id="g17"><g
   fill="#000000"
   fill-opacity="1"
   id="g2"
   transform="matrix(1.33333,0,0,1.33333,-3.7615,-2.3715)">
    <g
   id="use1"
   transform="translate(1.993,10.888)">
      <path
   d="m 6.21875,-2.453125 c -0.109375,0.34375 -0.109375,0.390625 -0.390625,0.78125 -0.453125,0.578125 -1.359375,1.46875 -2.34375,1.46875 -0.84375,0 -1.3125,-0.765625 -1.3125,-1.984375 0,-1.140625 0.640625,-3.453125 1.03125,-4.3125 C 3.90625,-7.953125 4.875,-8.703125 5.6875,-8.703125 c 1.359375,0 1.625,1.703125 1.625,1.859375 0,0.03125 -0.0625,0.296875 -0.078125,0.34375 z M 7.546875,-7.75 C 7.3125,-8.28125 6.75,-9.109375 5.6875,-9.109375 c -2.34375,0 -4.859375,3.015625 -4.859375,6.078125 0,2.046875 1.203125,3.234375 2.59375,3.234375 1.140625,0 2.109375,-0.890625 2.6875,-1.5625 0.21875,1.21875 1.1875,1.5625 1.796875,1.5625 0.625,0 1.125,-0.375 1.5,-1.109375 0.328125,-0.703125 0.609375,-1.96875 0.609375,-2.046875 0,-0.109375 -0.078125,-0.1875 -0.203125,-0.1875 -0.1875,0 -0.203125,0.109375 -0.296875,0.40625 -0.296875,1.21875 -0.703125,2.53125 -1.546875,2.53125 -0.59375,0 -0.640625,-0.546875 -0.640625,-0.953125 0,-0.46875 0.0625,-0.703125 0.25,-1.515625 0.140625,-0.515625 0.25,-0.96875 0.421875,-1.5625 0.765625,-3.09375 0.9375,-3.84375 0.9375,-3.96875 0,-0.28125 -0.21875,-0.515625 -0.53125,-0.515625 C 7.75,-8.71875 7.578125,-8 7.546875,-7.75 Z m 0,0"
   id="path16" />
    </g>
  </g>
</g><path
   style="display:inline;fill:none;fill-rule:evenodd;stroke:#000000;stroke-width:0.971414px;stroke-linecap:butt;stroke-linejoin:miter;stroke-dasharray:5.82848, 1.94282;stroke-dashoffset:0;stroke-opacity:1;marker-end:url(#marker21)"
   d="M 368.33388,317.60088 367.05955,156.79912"
   id="path17"
   inkscape:connector-type="polyline"
   inkscape:connector-curvature="0" /><path
   style="fill:none;fill-rule:evenodd;stroke:#000000;stroke-width:0.940136px;stroke-linecap:butt;stroke-linejoin:miter;stroke-dasharray:5.64082, 1.88027;stroke-dashoffset:0;stroke-opacity:1;marker-end:url(#marker20)"
   d="m 369.10234,317.09806 187.14593,-2.723"
   id="path18"
   inkscape:connector-type="polyline"
   inkscape:connector-curvature="0" /><g
   inkscape:label=""
   transform="translate(573.9929,313.831)"
   id="g24"><g
   fill="#000000"
   fill-opacity="1"
   id="g23"
   transform="matrix(1.33333,0,0,1.33333,-3.42817,-2.3715)">
    <g
   id="g22"
   transform="translate(1.993,10.888)">
      <path
   d="m 9.796875,-8.421875 c -0.671875,0.125 -0.921875,0.609375 -0.921875,1 0,0.5 0.40625,0.671875 0.6875,0.671875 0.625,0 1.0625,-0.546875 1.0625,-1.09375 0,-0.875 -1,-1.265625 -1.859375,-1.265625 -1.265625,0 -1.96875,1.234375 -2.15625,1.625 -0.46875,-1.546875 -1.75,-1.625 -2.125,-1.625 -2.109375,0 -3.21875,2.703125 -3.21875,3.15625 0,0.09375 0.078125,0.1875 0.21875,0.1875 0.171875,0 0.203125,-0.125 0.25,-0.203125 0.703125,-2.296875 2.09375,-2.734375 2.6875,-2.734375 0.921875,0 1.109375,0.875 1.109375,1.375 0,0.453125 -0.125,0.921875 -0.359375,1.921875 L 4.46875,-2.578125 c -0.3125,1.234375 -0.921875,2.375 -2.015625,2.375 -0.09375,0 -0.609375,0 -1.046875,-0.265625 C 2.140625,-0.625 2.3125,-1.234375 2.3125,-1.484375 2.3125,-1.90625 2,-2.140625 1.609375,-2.140625 c -0.5,0 -1.03125,0.421875 -1.03125,1.09375 0,0.859375 0.96875,1.25 1.859375,1.25 0.984375,0 1.6875,-0.78125 2.125,-1.625 0.328125,1.21875 1.359375,1.625 2.125,1.625 2.109375,0 3.234375,-2.703125 3.234375,-3.15625 0,-0.109375 -0.09375,-0.1875 -0.21875,-0.1875 -0.1875,0 -0.203125,0.109375 -0.265625,0.265625 -0.5625,1.828125 -1.75,2.671875 -2.6875,2.671875 -0.71875,0 -1.109375,-0.546875 -1.109375,-1.390625 0,-0.453125 0.078125,-0.78125 0.40625,-2.140625 l 0.734375,-2.8125 c 0.296875,-1.234375 1,-2.15625 1.953125,-2.15625 0.046875,0 0.625,0 1.0625,0.28125 z m 0,0"
   id="path22" />
    </g>
  </g>
</g><g
   inkscape:label=""
   transform="translate(343.15129,155.80867)"
   id="g27"><g
   fill="#000000"
   fill-opacity="1"
   id="g26"
   transform="matrix(1.33333,0,0,1.33333,-3.40733,-2.37283)">
    <g
   id="g25"
   transform="translate(1.993,10.889)">
      <path
   d="m 5.4375,2.3125 c -0.5625,0.78125 -1.375,1.484375 -2.375,1.484375 -0.25,0 -1.25,-0.03125 -1.546875,-0.984375 C 1.5625,2.828125 1.671875,2.828125 1.71875,2.828125 2.328125,2.828125 2.75,2.296875 2.75,1.8125 2.75,1.34375 2.359375,1.171875 2.046875,1.171875 c -0.328125,0 -1.0625,0.25 -1.0625,1.265625 0,1.046875 0.890625,1.78125 2.078125,1.78125 2.0625,0 4.140625,-1.90625 4.71875,-4.203125 L 9.8125,-8.03125 c 0.015625,-0.109375 0.0625,-0.234375 0.0625,-0.359375 0,-0.3125 -0.25,-0.515625 -0.5625,-0.515625 -0.1875,0 -0.609375,0.09375 -0.78125,0.703125 L 7,-2.125 c -0.09375,0.375 -0.09375,0.40625 -0.265625,0.640625 -0.40625,0.578125 -1.09375,1.28125 -2.09375,1.28125 -1.15625,0 -1.25,-1.140625 -1.25,-1.703125 0,-1.171875 0.5625,-2.765625 1.109375,-4.25 0.234375,-0.59375 0.359375,-0.890625 0.359375,-1.296875 0,-0.875 -0.625,-1.65625 -1.640625,-1.65625 -1.890625,0 -2.65625,3 -2.65625,3.15625 0,0.09375 0.078125,0.1875 0.21875,0.1875 0.1875,0 0.203125,-0.078125 0.296875,-0.375 0.484375,-1.734375 1.28125,-2.5625 2.078125,-2.5625 0.1875,0 0.546875,0 0.546875,0.6875 0,0.53125 -0.234375,1.140625 -0.546875,1.921875 -1.015625,2.703125 -1.015625,3.390625 -1.015625,3.890625 0,1.953125 1.40625,2.40625 2.4375,2.40625 0.609375,0 1.34375,-0.1875 2.078125,-0.953125 l 0.015625,0.03125 C 6.359375,0.5 6.15625,1.296875 5.4375,2.3125 Z m 0,0"
   id="path24" />
    </g>
  </g>
</g></svg>
