<?xml version="1.0" encoding="UTF-8" standalone="no"?>
<!-- Generator: Adobe Illustrator 28.2.0, SVG Export Plug-In . SVG Version: 6.00 Build 0)  -->

<svg
   version="1.1"
   id="Layer_1"
   x="0px"
   y="0px"
   viewBox="0 0 1366 768"
   style="enable-background:new 0 0 1366 768;"
   xml:space="preserve"
   sodipodi:docname="inversion.svg"
   inkscape:version="1.4 (e7c3feb100, 2024-10-09)"
   xmlns:inkscape="http://www.inkscape.org/namespaces/inkscape"
   xmlns:sodipodi="http://sodipodi.sourceforge.net/DTD/sodipodi-0.dtd"
   xmlns:xlink="http://www.w3.org/1999/xlink"
   xmlns="http://www.w3.org/2000/svg"
   xmlns:svg="http://www.w3.org/2000/svg"
   xmlns:ns8="http://www.iki.fi/pav/software/textext/"><defs
   id="defs5"><pattern
     inkscape:collect="always"
     xlink:href="#Hexagons"
     id="pattern2335"
     patternTransform="matrix(1.4306234,0,0,1.2969473,-292.4564,-275.85575)" /><pattern
     patternUnits="userSpaceOnUse"
     width="100"
     height="87"
     preserveAspectRatio="xMidYMid"
     patternTransform="translate(1,1) scale(0.5,0.5)"
     style="fill:#aaaaaa"
     id="Hexagons"
     inkscape:label="Hexagons packing grid"
     inkscape:collect="always"
     inkscape:isstock="true"><path
       id="path27"
       style="stroke:none"
       d="M 23.246093,0 0,13.382812 V 44.689453 L 0.0839844,44.640625 24.033203,58.505859 24.001953,86.332031 22.841796,87 h 4.478516 L 26.068359,86.275391 26.099609,58.449219 50.083984,44.640625 74.033203,58.505859 74.001953,86.332031 72.841796,87 h 4.478516 L 76.068359,86.275391 76.099609,58.449219 100,44.689453 V 13.365234 L 76.919921,0 H 73.246093 L 50.015625,13.373047 26.919921,0 Z M 25.083984,1.25 49.033203,15.115234 49.001953,42.941406 25.017578,56.75 1.0019531,42.845703 l 0.033203,-27.75 z m 50,0 24.017576,13.904297 -0.0352,27.75 L 75.017578,56.75 51.068359,42.884766 51.099609,15.058594 Z" /></pattern><g
     id="id-e29745c1-9530-4d3c-98db-901446c12023">
      <symbol
   overflow="visible"
   id="id-719c76e2-4ea4-455c-ba0a-1159a2d416b8">
        <path
   style="stroke:none"
   d=""
   id="id-3fc2b7b4-1a92-470b-88ab-b86bfd727e92" />
      </symbol>
      <symbol
   overflow="visible"
   id="id-b670580f-ca71-4bde-8e13-1fa9ee54e0aa">
        <path
   style="stroke:none"
   d="m 7.578125,-6.921875 c 0,-0.03125 -0.015625,-0.109375 -0.109375,-0.109375 -0.03125,0 -0.046875,0.015625 -0.15625,0.125 L 6.625,-6.140625 C 6.53125,-6.28125 6.078125,-7.03125 4.96875,-7.03125 2.734375,-7.03125 0.5,-4.828125 0.5,-2.515625 0.5,-0.875 1.671875,0.21875 3.203125,0.21875 c 0.859375,0 1.625,-0.390625 2.15625,-0.859375 0.921875,-0.8125 1.09375,-1.71875 1.09375,-1.75 C 6.453125,-2.5 6.34375,-2.5 6.328125,-2.5 c -0.0625,0 -0.109375,0.03125 -0.125,0.109375 -0.09375,0.28125 -0.328125,1 -1.015625,1.578125 -0.6875,0.546875 -1.3125,0.71875 -1.828125,0.71875 -0.890625,0 -1.953125,-0.515625 -1.953125,-2.0625 0,-0.578125 0.203125,-2.1875 1.203125,-3.359375 0.609375,-0.703125 1.546875,-1.203125 2.4375,-1.203125 1.015625,0 1.609375,0.765625 1.609375,1.921875 0,0.40625 -0.03125,0.40625 -0.03125,0.515625 0,0.09375 0.109375,0.09375 0.140625,0.09375 0.125,0 0.125,-0.015625 0.1875,-0.203125 z m 0,0"
   id="id-e9853bc4-ba0a-4dc8-a727-399499987805" />
      </symbol>
      <symbol
   overflow="visible"
   id="id-f8b19041-37b0-4af5-bb36-6adddbc9d8c5">
        <path
   style="stroke:none"
   d=""
   id="id-ed8aacb0-5cb6-4734-a248-6d3e8de0b805" />
      </symbol>
      <symbol
   overflow="visible"
   id="id-16ddc224-e227-4c35-ba66-6ff59f5d44ef">
        <path
   style="stroke:none"
   d="m 2.015625,-3.296875 c 0.0625,-0.109375 0.0625,-0.171875 0.0625,-0.21875 0,-0.21875 -0.1875,-0.375 -0.40625,-0.375 -0.265625,0 -0.34375,0.21875 -0.375,0.328125 L 0.375,-0.546875 c -0.015625,0.015625 -0.046875,0.09375 -0.046875,0.109375 0,0.078125 0.21875,0.15625 0.28125,0.15625 0.046875,0 0.046875,-0.015625 0.09375,-0.125 z m 0,0"
   id="id-6652639c-9b5d-4368-982d-6b140670f18c" />
      </symbol>
      <symbol
   overflow="visible"
   id="id-5a70f33e-09ad-4aeb-bb10-d1846d56424f">
        <path
   style="stroke:none"
   d=""
   id="id-ab7278d3-971c-402e-93d3-306a32b48679" />
      </symbol>
      <symbol
   overflow="visible"
   id="id-a27d9431-7ff0-4d9e-8780-8205ac9f383b">
        <path
   style="stroke:none"
   d="M 2.46875,-5.21875 C 1.15625,-4.296875 0.796875,-2.8125 0.796875,-1.75 c 0,0.984375 0.296875,2.515625 1.671875,3.484375 0.0625,0 0.140625,0 0.140625,-0.078125 0,-0.046875 -0.015625,-0.0625 -0.0625,-0.109375 C 1.609375,0.703125 1.28125,-0.46875 1.28125,-1.734375 1.28125,-3.625 2,-4.546875 2.5625,-5.0625 2.59375,-5.09375 2.609375,-5.109375 2.609375,-5.140625 2.609375,-5.21875 2.53125,-5.21875 2.46875,-5.21875 Z m 0,0"
   id="id-e629449f-1284-44ff-b02b-f486be1c8ad7" />
      </symbol>
      <symbol
   overflow="visible"
   id="id-b890a86c-5930-4c64-8b4e-dbb5de4da08c">
        <path
   style="stroke:none"
   d="m 2.328125,-4.4375 c 0,-0.1875 0,-0.1875 -0.203125,-0.1875 -0.453125,0.4375 -1.078125,0.4375 -1.359375,0.4375 v 0.25 c 0.15625,0 0.625,0 1,-0.1875 v 3.546875 c 0,0.234375 0,0.328125 -0.6875,0.328125 H 0.8125 V 0 c 0.125,0 0.984375,-0.03125 1.234375,-0.03125 0.21875,0 1.09375,0.03125 1.25,0.03125 V -0.25 H 3.03125 c -0.703125,0 -0.703125,-0.09375 -0.703125,-0.328125 z m 0,0"
   id="id-3cd6bce7-1b9e-4fb5-8299-9562ae1400f2" />
      </symbol>
      <symbol
   overflow="visible"
   id="id-6ae009b6-3962-4cc2-a94e-134fe0413201">
        <path
   style="stroke:none"
   d="M 3.515625,-1.265625 H 3.28125 c -0.015625,0.15625 -0.09375,0.5625 -0.1875,0.625 C 3.046875,-0.59375 2.515625,-0.59375 2.40625,-0.59375 H 1.125 c 0.734375,-0.640625 0.984375,-0.84375 1.390625,-1.171875 0.515625,-0.40625 1,-0.84375 1,-1.5 0,-0.84375 -0.734375,-1.359375 -1.625,-1.359375 -0.859375,0 -1.453125,0.609375 -1.453125,1.25 0,0.34375 0.296875,0.390625 0.375,0.390625 0.15625,0 0.359375,-0.125 0.359375,-0.375 0,-0.125 -0.046875,-0.375 -0.40625,-0.375 C 0.984375,-4.21875 1.453125,-4.375 1.78125,-4.375 c 0.703125,0 1.0625,0.546875 1.0625,1.109375 0,0.609375 -0.4375,1.078125 -0.65625,1.328125 L 0.515625,-0.265625 C 0.4375,-0.203125 0.4375,-0.1875 0.4375,0 h 2.875 z m 0,0"
   id="id-7fb1174d-7cad-422a-8a49-aef0e4452f02" />
      </symbol>
      <symbol
   overflow="visible"
   id="id-2b9e912f-cdc1-4e51-8bea-e8436e9ec040">
        <path
   style="stroke:none"
   d="m 0.625,-5.21875 c -0.046875,0 -0.125,0 -0.125,0.078125 0,0.03125 0.015625,0.046875 0.0625,0.109375 0.59375,0.546875 1.265625,1.484375 1.265625,3.28125 0,1.453125 -0.453125,2.5625 -1.203125,3.234375 -0.125,0.125 -0.125,0.125 -0.125,0.171875 0,0.03125 0.015625,0.078125 0.078125,0.078125 0.09375,0 0.75,-0.453125 1.21875,-1.328125 0.296875,-0.578125 0.5,-1.328125 0.5,-2.140625 C 2.296875,-2.71875 2,-4.25 0.625,-5.21875 Z m 0,0"
   id="id-8a666392-4908-44e5-9897-a0bafefbc248" />
      </symbol>
    </g><g
     id="id-0d128b41-ce58-434a-9146-865efdb3e366">
      <symbol
   overflow="visible"
   id="id-27a26e54-82a7-4746-ac1c-4f463234e0ff">
        <path
   style="stroke:none"
   d=""
   id="id-8f48e82d-cd4d-4306-be23-2a225baada04" />
      </symbol>
      <symbol
   overflow="visible"
   id="id-8c9a6f32-97c9-4433-b1a9-777823052472">
        <path
   style="stroke:none"
   d="m 7.578125,-6.921875 c 0,-0.03125 -0.015625,-0.109375 -0.109375,-0.109375 -0.03125,0 -0.046875,0.015625 -0.15625,0.125 L 6.625,-6.140625 C 6.53125,-6.28125 6.078125,-7.03125 4.96875,-7.03125 2.734375,-7.03125 0.5,-4.828125 0.5,-2.515625 0.5,-0.875 1.671875,0.21875 3.203125,0.21875 c 0.859375,0 1.625,-0.390625 2.15625,-0.859375 0.921875,-0.8125 1.09375,-1.71875 1.09375,-1.75 C 6.453125,-2.5 6.34375,-2.5 6.328125,-2.5 c -0.0625,0 -0.109375,0.03125 -0.125,0.109375 -0.09375,0.28125 -0.328125,1 -1.015625,1.578125 -0.6875,0.546875 -1.3125,0.71875 -1.828125,0.71875 -0.890625,0 -1.953125,-0.515625 -1.953125,-2.0625 0,-0.578125 0.203125,-2.1875 1.203125,-3.359375 0.609375,-0.703125 1.546875,-1.203125 2.4375,-1.203125 1.015625,0 1.609375,0.765625 1.609375,1.921875 0,0.40625 -0.03125,0.40625 -0.03125,0.515625 0,0.09375 0.109375,0.09375 0.140625,0.09375 0.125,0 0.125,-0.015625 0.1875,-0.203125 z m 0,0"
   id="id-3de23032-6c27-429b-a227-b02bec4c5ea9" />
      </symbol>
      <symbol
   overflow="visible"
   id="id-080f3a15-7206-448a-815a-f25e07e4d2ad">
        <path
   style="stroke:none"
   d=""
   id="id-dd6785e5-ce82-4339-bb2a-c726745f3b52" />
      </symbol>
      <symbol
   overflow="visible"
   id="id-0de28474-1665-4725-ae95-20a7c81a163c">
        <path
   style="stroke:none"
   d="m 2.015625,-3.296875 c 0.0625,-0.109375 0.0625,-0.171875 0.0625,-0.21875 0,-0.21875 -0.1875,-0.375 -0.40625,-0.375 -0.265625,0 -0.34375,0.21875 -0.375,0.328125 L 0.375,-0.546875 c -0.015625,0.015625 -0.046875,0.09375 -0.046875,0.109375 0,0.078125 0.21875,0.15625 0.28125,0.15625 0.046875,0 0.046875,-0.015625 0.09375,-0.125 z m 0,0"
   id="id-7c4f2c5b-2eea-4b81-b9a2-7079e06e8423" />
      </symbol>
      <symbol
   overflow="visible"
   id="id-a2128667-536c-4afc-b424-8081a3d48f4a">
        <path
   style="stroke:none"
   d=""
   id="id-baa41217-1e3d-4304-a929-5fba55a4c889" />
      </symbol>
      <symbol
   overflow="visible"
   id="id-8bcaa95b-5368-45c9-9489-96f8bccc0ccc">
        <path
   style="stroke:none"
   d="M 2.46875,-5.21875 C 1.15625,-4.296875 0.796875,-2.8125 0.796875,-1.75 c 0,0.984375 0.296875,2.515625 1.671875,3.484375 0.0625,0 0.140625,0 0.140625,-0.078125 0,-0.046875 -0.015625,-0.0625 -0.0625,-0.109375 C 1.609375,0.703125 1.28125,-0.46875 1.28125,-1.734375 1.28125,-3.625 2,-4.546875 2.5625,-5.0625 2.59375,-5.09375 2.609375,-5.109375 2.609375,-5.140625 2.609375,-5.21875 2.53125,-5.21875 2.46875,-5.21875 Z m 0,0"
   id="id-cf266f77-c87a-43bc-b124-9f4697631821" />
      </symbol>
      <symbol
   overflow="visible"
   id="id-161fc497-b652-46e5-a936-09958ae9e941">
        <path
   style="stroke:none"
   d="M 3.515625,-1.265625 H 3.28125 c -0.015625,0.15625 -0.09375,0.5625 -0.1875,0.625 C 3.046875,-0.59375 2.515625,-0.59375 2.40625,-0.59375 H 1.125 c 0.734375,-0.640625 0.984375,-0.84375 1.390625,-1.171875 0.515625,-0.40625 1,-0.84375 1,-1.5 0,-0.84375 -0.734375,-1.359375 -1.625,-1.359375 -0.859375,0 -1.453125,0.609375 -1.453125,1.25 0,0.34375 0.296875,0.390625 0.375,0.390625 0.15625,0 0.359375,-0.125 0.359375,-0.375 0,-0.125 -0.046875,-0.375 -0.40625,-0.375 C 0.984375,-4.21875 1.453125,-4.375 1.78125,-4.375 c 0.703125,0 1.0625,0.546875 1.0625,1.109375 0,0.609375 -0.4375,1.078125 -0.65625,1.328125 L 0.515625,-0.265625 C 0.4375,-0.203125 0.4375,-0.1875 0.4375,0 h 2.875 z m 0,0"
   id="id-efa1c2e8-1043-4c68-8587-a32be1c3e1f4" />
      </symbol>
      <symbol
   overflow="visible"
   id="id-a0596050-c5ac-4c0f-a12a-7365003f5fbc">
        <path
   style="stroke:none"
   d="m 1.90625,-2.328125 c 0.546875,0 0.9375,0.375 0.9375,1.125 0,0.859375 -0.515625,1.125 -0.90625,1.125 -0.28125,0 -0.90625,-0.078125 -1.1875,-0.5 0.328125,0 0.40625,-0.234375 0.40625,-0.390625 0,-0.21875 -0.171875,-0.375 -0.390625,-0.375 -0.1875,0 -0.390625,0.125 -0.390625,0.40625 0,0.65625 0.71875,1.078125 1.5625,1.078125 0.96875,0 1.640625,-0.65625 1.640625,-1.34375 0,-0.546875 -0.4375,-1.09375 -1.203125,-1.25 0.71875,-0.265625 0.984375,-0.78125 0.984375,-1.21875 0,-0.546875 -0.625,-0.953125 -1.40625,-0.953125 -0.765625,0 -1.359375,0.375 -1.359375,0.9375 0,0.234375 0.15625,0.359375 0.359375,0.359375 0.21875,0 0.359375,-0.15625 0.359375,-0.34375 0,-0.203125 -0.140625,-0.359375 -0.359375,-0.375 0.25,-0.296875 0.71875,-0.375 0.984375,-0.375 0.3125,0 0.75,0.15625 0.75,0.75 0,0.296875 -0.09375,0.625 -0.28125,0.828125 -0.21875,0.265625 -0.421875,0.28125 -0.765625,0.3125 -0.171875,0.015625 -0.1875,0.015625 -0.21875,0.015625 -0.015625,0 -0.078125,0.015625 -0.078125,0.09375 0,0.09375 0.0625,0.09375 0.1875,0.09375 z m 0,0"
   id="id-015228b4-69df-48fe-86ce-5cea3ed362f7" />
      </symbol>
      <symbol
   overflow="visible"
   id="id-9e6f7c61-15a3-422f-91cd-824db27eb13c">
        <path
   style="stroke:none"
   d="m 0.625,-5.21875 c -0.046875,0 -0.125,0 -0.125,0.078125 0,0.03125 0.015625,0.046875 0.0625,0.109375 0.59375,0.546875 1.265625,1.484375 1.265625,3.28125 0,1.453125 -0.453125,2.5625 -1.203125,3.234375 -0.125,0.125 -0.125,0.125 -0.125,0.171875 0,0.03125 0.015625,0.078125 0.078125,0.078125 0.09375,0 0.75,-0.453125 1.21875,-1.328125 0.296875,-0.578125 0.5,-1.328125 0.5,-2.140625 C 2.296875,-2.71875 2,-4.25 0.625,-5.21875 Z m 0,0"
   id="id-8815a51e-825d-4be9-9295-d39b8cf1f8b3" />
      </symbol>
    </g><g
     id="id-81a2ea6f-9b14-4d06-a36d-37418f5b288f">
      <symbol
   overflow="visible"
   id="id-83ce6d9d-5a8e-4118-ac52-758fa620daff">
        <path
   style="stroke:none;stroke-width:0"
   d=""
   id="id-21982720-c80c-4b64-a51a-311902a51fb7" />
      </symbol>
      <symbol
   overflow="visible"
   id="id-5e10c6db-de1c-468d-a6e3-20a370617f2b">
        <path
   style="stroke:none;stroke-width:0"
   d="m 7.578125,-6.921875 c 0,-0.03125 -0.015625,-0.109375 -0.109375,-0.109375 -0.03125,0 -0.046875,0.015625 -0.15625,0.125 L 6.625,-6.140625 C 6.53125,-6.28125 6.078125,-7.03125 4.96875,-7.03125 2.734375,-7.03125 0.5,-4.828125 0.5,-2.515625 0.5,-0.875 1.671875,0.21875 3.203125,0.21875 c 0.859375,0 1.625,-0.390625 2.15625,-0.859375 0.921875,-0.8125 1.09375,-1.71875 1.09375,-1.75 C 6.453125,-2.5 6.34375,-2.5 6.328125,-2.5 c -0.0625,0 -0.109375,0.03125 -0.125,0.109375 -0.09375,0.28125 -0.328125,1 -1.015625,1.578125 -0.6875,0.546875 -1.3125,0.71875 -1.828125,0.71875 -0.890625,0 -1.953125,-0.515625 -1.953125,-2.0625 0,-0.578125 0.203125,-2.1875 1.203125,-3.359375 0.609375,-0.703125 1.546875,-1.203125 2.4375,-1.203125 1.015625,0 1.609375,0.765625 1.609375,1.921875 0,0.40625 -0.03125,0.40625 -0.03125,0.515625 0,0.09375 0.109375,0.09375 0.140625,0.09375 0.125,0 0.125,-0.015625 0.1875,-0.203125 z m 0,0"
   id="id-ea695284-bc01-43e9-84bc-c7c097d278a3" />
      </symbol>
      <symbol
   overflow="visible"
   id="id-9c03f2d5-506f-452e-ad76-b42b8169ca2d">
        <path
   style="stroke:none;stroke-width:0"
   d=""
   id="id-ca607214-5292-46e0-8de8-e1309928bb21" />
      </symbol>
      <symbol
   overflow="visible"
   id="id-321ae603-454d-4995-b5ba-20de3166565a">
        <path
   style="stroke:none;stroke-width:0"
   d="m 2.015625,-3.296875 c 0.0625,-0.109375 0.0625,-0.171875 0.0625,-0.21875 0,-0.21875 -0.1875,-0.375 -0.40625,-0.375 -0.265625,0 -0.34375,0.21875 -0.375,0.328125 L 0.375,-0.546875 c -0.015625,0.015625 -0.046875,0.09375 -0.046875,0.109375 0,0.078125 0.21875,0.15625 0.28125,0.15625 0.046875,0 0.046875,-0.015625 0.09375,-0.125 z m 0,0"
   id="id-15e3ab7a-209e-42a1-8d92-35d151693c3b" />
      </symbol>
      <symbol
   overflow="visible"
   id="id-6def8bfb-7b0e-46ef-b4ac-17e91f5be05b">
        <path
   style="stroke:none;stroke-width:0"
   d=""
   id="id-d40b9a28-5717-41d0-b4bd-82b754f33e70" />
      </symbol>
      <symbol
   overflow="visible"
   id="id-048d47d8-6c89-4a71-93d4-3adb2ed744f8">
        <path
   style="stroke:none;stroke-width:0"
   d="M 2.46875,-5.21875 C 1.15625,-4.296875 0.796875,-2.8125 0.796875,-1.75 c 0,0.984375 0.296875,2.515625 1.671875,3.484375 0.0625,0 0.140625,0 0.140625,-0.078125 0,-0.046875 -0.015625,-0.0625 -0.0625,-0.109375 C 1.609375,0.703125 1.28125,-0.46875 1.28125,-1.734375 1.28125,-3.625 2,-4.546875 2.5625,-5.0625 2.59375,-5.09375 2.609375,-5.109375 2.609375,-5.140625 2.609375,-5.21875 2.53125,-5.21875 2.46875,-5.21875 Z m 0,0"
   id="id-11a5b8b8-eda4-4ef9-89c3-578ca67156ac" />
      </symbol>
      <symbol
   overflow="visible"
   id="id-0c4f68d4-1dd7-4d29-bfee-fa3ca1005a8f">
        <path
   style="stroke:none;stroke-width:0"
   d="m 1.90625,-2.328125 c 0.546875,0 0.9375,0.375 0.9375,1.125 0,0.859375 -0.515625,1.125 -0.90625,1.125 -0.28125,0 -0.90625,-0.078125 -1.1875,-0.5 0.328125,0 0.40625,-0.234375 0.40625,-0.390625 0,-0.21875 -0.171875,-0.375 -0.390625,-0.375 -0.1875,0 -0.390625,0.125 -0.390625,0.40625 0,0.65625 0.71875,1.078125 1.5625,1.078125 0.96875,0 1.640625,-0.65625 1.640625,-1.34375 0,-0.546875 -0.4375,-1.09375 -1.203125,-1.25 0.71875,-0.265625 0.984375,-0.78125 0.984375,-1.21875 0,-0.546875 -0.625,-0.953125 -1.40625,-0.953125 -0.765625,0 -1.359375,0.375 -1.359375,0.9375 0,0.234375 0.15625,0.359375 0.359375,0.359375 0.21875,0 0.359375,-0.15625 0.359375,-0.34375 0,-0.203125 -0.140625,-0.359375 -0.359375,-0.375 0.25,-0.296875 0.71875,-0.375 0.984375,-0.375 0.3125,0 0.75,0.15625 0.75,0.75 0,0.296875 -0.09375,0.625 -0.28125,0.828125 -0.21875,0.265625 -0.421875,0.28125 -0.765625,0.3125 -0.171875,0.015625 -0.1875,0.015625 -0.21875,0.015625 -0.015625,0 -0.078125,0.015625 -0.078125,0.09375 0,0.09375 0.0625,0.09375 0.1875,0.09375 z m 0,0"
   id="id-023dc42b-5000-4dbe-962c-34433442e780" />
      </symbol>
      <symbol
   overflow="visible"
   id="id-89ecf072-7baa-4938-ab41-d269187ca0b7">
        <path
   style="stroke:none;stroke-width:0"
   d="m 2.328125,-4.4375 c 0,-0.1875 0,-0.1875 -0.203125,-0.1875 -0.453125,0.4375 -1.078125,0.4375 -1.359375,0.4375 v 0.25 c 0.15625,0 0.625,0 1,-0.1875 v 3.546875 c 0,0.234375 0,0.328125 -0.6875,0.328125 H 0.8125 V 0 c 0.125,0 0.984375,-0.03125 1.234375,-0.03125 0.21875,0 1.09375,0.03125 1.25,0.03125 V -0.25 H 3.03125 c -0.703125,0 -0.703125,-0.09375 -0.703125,-0.328125 z m 0,0"
   id="id-c8ac9596-b7f1-4152-9057-6b774c10ef8b" />
      </symbol>
      <symbol
   overflow="visible"
   id="id-e0dedd79-447a-44a5-bd8a-d4496f659443">
        <path
   style="stroke:none;stroke-width:0"
   d="m 0.625,-5.21875 c -0.046875,0 -0.125,0 -0.125,0.078125 0,0.03125 0.015625,0.046875 0.0625,0.109375 0.59375,0.546875 1.265625,1.484375 1.265625,3.28125 0,1.453125 -0.453125,2.5625 -1.203125,3.234375 -0.125,0.125 -0.125,0.125 -0.125,0.171875 0,0.03125 0.015625,0.078125 0.078125,0.078125 0.09375,0 0.75,-0.453125 1.21875,-1.328125 0.296875,-0.578125 0.5,-1.328125 0.5,-2.140625 C 2.296875,-2.71875 2,-4.25 0.625,-5.21875 Z m 0,0"
   id="id-f09089ea-ded1-4d01-9c28-e1763bc8ae90" />
      </symbol>
      <symbol
   overflow="visible"
   id="id-8b20aa72-ecbd-4a96-a613-bb6a180bf9c1">
        <path
   style="stroke:none;stroke-width:0"
   d="M 3.515625,-1.265625 H 3.28125 c -0.015625,0.15625 -0.09375,0.5625 -0.1875,0.625 C 3.046875,-0.59375 2.515625,-0.59375 2.40625,-0.59375 H 1.125 c 0.734375,-0.640625 0.984375,-0.84375 1.390625,-1.171875 0.515625,-0.40625 1,-0.84375 1,-1.5 0,-0.84375 -0.734375,-1.359375 -1.625,-1.359375 -0.859375,0 -1.453125,0.609375 -1.453125,1.25 0,0.34375 0.296875,0.390625 0.375,0.390625 0.15625,0 0.359375,-0.125 0.359375,-0.375 0,-0.125 -0.046875,-0.375 -0.40625,-0.375 C 0.984375,-4.21875 1.453125,-4.375 1.78125,-4.375 c 0.703125,0 1.0625,0.546875 1.0625,1.109375 0,0.609375 -0.4375,1.078125 -0.65625,1.328125 L 0.515625,-0.265625 C 0.4375,-0.203125 0.4375,-0.1875 0.4375,0 h 2.875 z m 0,0"
   id="id-88965c99-f5cf-4033-bb89-d8cf40244442" />
      </symbol>
    </g><g
     id="id-ec774054-d571-49ee-8e7f-bb3fbffbcd7e">
      <symbol
   overflow="visible"
   id="id-f7d919e6-384c-45c3-9042-e632471d8b18">
        <path
   style="stroke:none"
   d=""
   id="id-825d1c3c-cf8d-495f-abdf-369d77fae15f" />
      </symbol>
      <symbol
   overflow="visible"
   id="id-77127937-64ec-4010-a84b-177b069dd334">
        <path
   style="stroke:none"
   d="m 7.578125,-6.921875 c 0,-0.03125 -0.015625,-0.109375 -0.109375,-0.109375 -0.03125,0 -0.046875,0.015625 -0.15625,0.125 L 6.625,-6.140625 C 6.53125,-6.28125 6.078125,-7.03125 4.96875,-7.03125 2.734375,-7.03125 0.5,-4.828125 0.5,-2.515625 0.5,-0.875 1.671875,0.21875 3.203125,0.21875 c 0.859375,0 1.625,-0.390625 2.15625,-0.859375 0.921875,-0.8125 1.09375,-1.71875 1.09375,-1.75 C 6.453125,-2.5 6.34375,-2.5 6.328125,-2.5 c -0.0625,0 -0.109375,0.03125 -0.125,0.109375 -0.09375,0.28125 -0.328125,1 -1.015625,1.578125 -0.6875,0.546875 -1.3125,0.71875 -1.828125,0.71875 -0.890625,0 -1.953125,-0.515625 -1.953125,-2.0625 0,-0.578125 0.203125,-2.1875 1.203125,-3.359375 0.609375,-0.703125 1.546875,-1.203125 2.4375,-1.203125 1.015625,0 1.609375,0.765625 1.609375,1.921875 0,0.40625 -0.03125,0.40625 -0.03125,0.515625 0,0.09375 0.109375,0.09375 0.140625,0.09375 0.125,0 0.125,-0.015625 0.1875,-0.203125 z m 0,0"
   id="id-15d06fc3-16f6-418a-ba0e-0f1a59a2e984" />
      </symbol>
      <symbol
   overflow="visible"
   id="id-d7fe0929-162f-4cb1-8b22-ad158fc6a49f">
        <path
   style="stroke:none"
   d=""
   id="id-edfd3b09-539f-49fc-b11e-7e32dd5c16df" />
      </symbol>
      <symbol
   overflow="visible"
   id="id-8c5c3eb2-8fbe-423d-a26d-497f738fe86b">
        <path
   style="stroke:none"
   d="m 2.015625,-3.296875 c 0.0625,-0.109375 0.0625,-0.171875 0.0625,-0.21875 0,-0.21875 -0.1875,-0.375 -0.40625,-0.375 -0.265625,0 -0.34375,0.21875 -0.375,0.328125 L 0.375,-0.546875 c -0.015625,0.015625 -0.046875,0.09375 -0.046875,0.109375 0,0.078125 0.21875,0.15625 0.28125,0.15625 0.046875,0 0.046875,-0.015625 0.09375,-0.125 z m 0,0"
   id="id-be4ef337-857a-4e88-bd19-736ff61bfb58" />
      </symbol>
      <symbol
   overflow="visible"
   id="id-bfd373a6-75f4-4174-bb19-08c951543836">
        <path
   style="stroke:none"
   d=""
   id="id-ca270e3d-80fb-4e0c-8cb5-9a2df4daf665" />
      </symbol>
      <symbol
   overflow="visible"
   id="id-d6422dde-77fa-40a7-84c1-d04c953f3cc8">
        <path
   style="stroke:none"
   d="M 2.46875,-5.21875 C 1.15625,-4.296875 0.796875,-2.8125 0.796875,-1.75 c 0,0.984375 0.296875,2.515625 1.671875,3.484375 0.0625,0 0.140625,0 0.140625,-0.078125 0,-0.046875 -0.015625,-0.0625 -0.0625,-0.109375 C 1.609375,0.703125 1.28125,-0.46875 1.28125,-1.734375 1.28125,-3.625 2,-4.546875 2.5625,-5.0625 2.59375,-5.09375 2.609375,-5.109375 2.609375,-5.140625 2.609375,-5.21875 2.53125,-5.21875 2.46875,-5.21875 Z m 0,0"
   id="id-1f8f08c5-fd70-4ef0-a718-caf1b8590708" />
      </symbol>
      <symbol
   overflow="visible"
   id="id-9c503311-350f-4eae-8a74-cba2302521e0">
        <path
   style="stroke:none"
   d="M 3.515625,-1.265625 H 3.28125 c -0.015625,0.15625 -0.09375,0.5625 -0.1875,0.625 C 3.046875,-0.59375 2.515625,-0.59375 2.40625,-0.59375 H 1.125 c 0.734375,-0.640625 0.984375,-0.84375 1.390625,-1.171875 0.515625,-0.40625 1,-0.84375 1,-1.5 0,-0.84375 -0.734375,-1.359375 -1.625,-1.359375 -0.859375,0 -1.453125,0.609375 -1.453125,1.25 0,0.34375 0.296875,0.390625 0.375,0.390625 0.15625,0 0.359375,-0.125 0.359375,-0.375 0,-0.125 -0.046875,-0.375 -0.40625,-0.375 C 0.984375,-4.21875 1.453125,-4.375 1.78125,-4.375 c 0.703125,0 1.0625,0.546875 1.0625,1.109375 0,0.609375 -0.4375,1.078125 -0.65625,1.328125 L 0.515625,-0.265625 C 0.4375,-0.203125 0.4375,-0.1875 0.4375,0 h 2.875 z m 0,0"
   id="id-ad0429c6-fb5b-47a2-85a4-fcb334ea8f17" />
      </symbol>
      <symbol
   overflow="visible"
   id="id-49f611e0-f657-4a7b-a2db-a58b2bc93edd">
        <path
   style="stroke:none"
   d="m 0.625,-5.21875 c -0.046875,0 -0.125,0 -0.125,0.078125 0,0.03125 0.015625,0.046875 0.0625,0.109375 0.59375,0.546875 1.265625,1.484375 1.265625,3.28125 0,1.453125 -0.453125,2.5625 -1.203125,3.234375 -0.125,0.125 -0.125,0.125 -0.125,0.171875 0,0.03125 0.015625,0.078125 0.078125,0.078125 0.09375,0 0.75,-0.453125 1.21875,-1.328125 0.296875,-0.578125 0.5,-1.328125 0.5,-2.140625 C 2.296875,-2.71875 2,-4.25 0.625,-5.21875 Z m 0,0"
   id="id-701f5666-9606-49ac-ae4f-bb4443f77cfc" />
      </symbol>
    </g><g
     id="id-22c1c546-4d53-4ecb-a0ba-e708fc6e0fb2">
      <symbol
   overflow="visible"
   id="id-fb8b73c2-2597-4bbd-8b5b-2063245aa727">
        <path
   style="stroke:none"
   d=""
   id="id-48f11def-80c0-4139-bff3-1bc40f0881ba" />
      </symbol>
      <symbol
   overflow="visible"
   id="id-f2df7008-2d29-4882-a429-df87e4e5f61d">
        <path
   style="stroke:none"
   d="m 7.578125,-6.921875 c 0,-0.03125 -0.015625,-0.109375 -0.109375,-0.109375 -0.03125,0 -0.046875,0.015625 -0.15625,0.125 L 6.625,-6.140625 C 6.53125,-6.28125 6.078125,-7.03125 4.96875,-7.03125 2.734375,-7.03125 0.5,-4.828125 0.5,-2.515625 0.5,-0.875 1.671875,0.21875 3.203125,0.21875 c 0.859375,0 1.625,-0.390625 2.15625,-0.859375 0.921875,-0.8125 1.09375,-1.71875 1.09375,-1.75 C 6.453125,-2.5 6.34375,-2.5 6.328125,-2.5 c -0.0625,0 -0.109375,0.03125 -0.125,0.109375 -0.09375,0.28125 -0.328125,1 -1.015625,1.578125 -0.6875,0.546875 -1.3125,0.71875 -1.828125,0.71875 -0.890625,0 -1.953125,-0.515625 -1.953125,-2.0625 0,-0.578125 0.203125,-2.1875 1.203125,-3.359375 0.609375,-0.703125 1.546875,-1.203125 2.4375,-1.203125 1.015625,0 1.609375,0.765625 1.609375,1.921875 0,0.40625 -0.03125,0.40625 -0.03125,0.515625 0,0.09375 0.109375,0.09375 0.140625,0.09375 0.125,0 0.125,-0.015625 0.1875,-0.203125 z m 0,0"
   id="id-23b8370c-bdb1-405f-8d5b-f85c07dbc98f" />
      </symbol>
      <symbol
   overflow="visible"
   id="id-7e33c7be-1958-4f28-9c72-247bc3f4c00c">
        <path
   style="stroke:none"
   d=""
   id="id-f5b9dea0-e4b4-4232-8ec6-cf0012be1b9a" />
      </symbol>
      <symbol
   overflow="visible"
   id="id-a6286247-ba9a-4d38-bc29-e9a1c0d88373">
        <path
   style="stroke:none"
   d="m 2.015625,-3.296875 c 0.0625,-0.109375 0.0625,-0.171875 0.0625,-0.21875 0,-0.21875 -0.1875,-0.375 -0.40625,-0.375 -0.265625,0 -0.34375,0.21875 -0.375,0.328125 L 0.375,-0.546875 c -0.015625,0.015625 -0.046875,0.09375 -0.046875,0.109375 0,0.078125 0.21875,0.15625 0.28125,0.15625 0.046875,0 0.046875,-0.015625 0.09375,-0.125 z m 0,0"
   id="id-440b52f7-cbbc-4baf-8b4f-6fd6b3555341" />
      </symbol>
      <symbol
   overflow="visible"
   id="id-524457be-f069-4147-8f25-bc9c4f9b5801">
        <path
   style="stroke:none"
   d=""
   id="id-fc7c4869-971f-474e-a59c-7b98c4ba1dcb" />
      </symbol>
      <symbol
   overflow="visible"
   id="id-c954d07b-6acf-47e5-8055-a81e350398b7">
        <path
   style="stroke:none"
   d="M 2.46875,-5.21875 C 1.15625,-4.296875 0.796875,-2.8125 0.796875,-1.75 c 0,0.984375 0.296875,2.515625 1.671875,3.484375 0.0625,0 0.140625,0 0.140625,-0.078125 0,-0.046875 -0.015625,-0.0625 -0.0625,-0.109375 C 1.609375,0.703125 1.28125,-0.46875 1.28125,-1.734375 1.28125,-3.625 2,-4.546875 2.5625,-5.0625 2.59375,-5.09375 2.609375,-5.109375 2.609375,-5.140625 2.609375,-5.21875 2.53125,-5.21875 2.46875,-5.21875 Z m 0,0"
   id="id-7cd98c4a-f7c0-4972-90df-573b6d1f5b21" />
      </symbol>
      <symbol
   overflow="visible"
   id="id-8da9fdc7-d9c9-41bd-b760-4b5b8cc74939">
        <path
   style="stroke:none"
   d="m 2.328125,-4.4375 c 0,-0.1875 0,-0.1875 -0.203125,-0.1875 -0.453125,0.4375 -1.078125,0.4375 -1.359375,0.4375 v 0.25 c 0.15625,0 0.625,0 1,-0.1875 v 3.546875 c 0,0.234375 0,0.328125 -0.6875,0.328125 H 0.8125 V 0 c 0.125,0 0.984375,-0.03125 1.234375,-0.03125 0.21875,0 1.09375,0.03125 1.25,0.03125 V -0.25 H 3.03125 c -0.703125,0 -0.703125,-0.09375 -0.703125,-0.328125 z m 0,0"
   id="id-edfb2d1d-bd03-486f-91a9-da857d8a303b" />
      </symbol>
      <symbol
   overflow="visible"
   id="id-3b786693-808d-4d80-8add-c354dc283002">
        <path
   style="stroke:none"
   d="m 0.625,-5.21875 c -0.046875,0 -0.125,0 -0.125,0.078125 0,0.03125 0.015625,0.046875 0.0625,0.109375 0.59375,0.546875 1.265625,1.484375 1.265625,3.28125 0,1.453125 -0.453125,2.5625 -1.203125,3.234375 -0.125,0.125 -0.125,0.125 -0.125,0.171875 0,0.03125 0.015625,0.078125 0.078125,0.078125 0.09375,0 0.75,-0.453125 1.21875,-1.328125 0.296875,-0.578125 0.5,-1.328125 0.5,-2.140625 C 2.296875,-2.71875 2,-4.25 0.625,-5.21875 Z m 0,0"
   id="id-08eded08-50e6-4060-8de5-e52c9fbf0f5f" />
      </symbol>
      <symbol
   overflow="visible"
   id="id-8bcbce10-56d3-41e4-a035-f63aef05613c">
        <path
   style="stroke:none"
   d="M 3.515625,-1.265625 H 3.28125 c -0.015625,0.15625 -0.09375,0.5625 -0.1875,0.625 C 3.046875,-0.59375 2.515625,-0.59375 2.40625,-0.59375 H 1.125 c 0.734375,-0.640625 0.984375,-0.84375 1.390625,-1.171875 0.515625,-0.40625 1,-0.84375 1,-1.5 0,-0.84375 -0.734375,-1.359375 -1.625,-1.359375 -0.859375,0 -1.453125,0.609375 -1.453125,1.25 0,0.34375 0.296875,0.390625 0.375,0.390625 0.15625,0 0.359375,-0.125 0.359375,-0.375 0,-0.125 -0.046875,-0.375 -0.40625,-0.375 C 0.984375,-4.21875 1.453125,-4.375 1.78125,-4.375 c 0.703125,0 1.0625,0.546875 1.0625,1.109375 0,0.609375 -0.4375,1.078125 -0.65625,1.328125 L 0.515625,-0.265625 C 0.4375,-0.203125 0.4375,-0.1875 0.4375,0 h 2.875 z m 0,0"
   id="id-28657133-609d-4e46-8689-ee6e3d5865e3" />
      </symbol>
    </g><g
     id="id-6b132065-b167-4b30-b512-cb4aee3bb293">
      <symbol
   overflow="visible"
   id="id-86e56e2e-0edf-4bc3-9892-8ecfb177e1ba">
        <path
   style="stroke:none"
   d=""
   id="id-a5ee1b94-68ee-4bcc-96f4-80a4f45b3fa4" />
      </symbol>
      <symbol
   overflow="visible"
   id="id-155c673b-677a-4efa-91c6-734bd32f16dd">
        <path
   style="stroke:none"
   d="m 7.578125,-6.921875 c 0,-0.03125 -0.015625,-0.109375 -0.109375,-0.109375 -0.03125,0 -0.046875,0.015625 -0.15625,0.125 L 6.625,-6.140625 C 6.53125,-6.28125 6.078125,-7.03125 4.96875,-7.03125 2.734375,-7.03125 0.5,-4.828125 0.5,-2.515625 0.5,-0.875 1.671875,0.21875 3.203125,0.21875 c 0.859375,0 1.625,-0.390625 2.15625,-0.859375 0.921875,-0.8125 1.09375,-1.71875 1.09375,-1.75 C 6.453125,-2.5 6.34375,-2.5 6.328125,-2.5 c -0.0625,0 -0.109375,0.03125 -0.125,0.109375 -0.09375,0.28125 -0.328125,1 -1.015625,1.578125 -0.6875,0.546875 -1.3125,0.71875 -1.828125,0.71875 -0.890625,0 -1.953125,-0.515625 -1.953125,-2.0625 0,-0.578125 0.203125,-2.1875 1.203125,-3.359375 0.609375,-0.703125 1.546875,-1.203125 2.4375,-1.203125 1.015625,0 1.609375,0.765625 1.609375,1.921875 0,0.40625 -0.03125,0.40625 -0.03125,0.515625 0,0.09375 0.109375,0.09375 0.140625,0.09375 0.125,0 0.125,-0.015625 0.1875,-0.203125 z m 0,0"
   id="id-f09d36d5-4233-49ee-9436-6c82f8a6dff1" />
      </symbol>
      <symbol
   overflow="visible"
   id="id-c58116d9-74fd-41f0-aed1-e612137f6b93">
        <path
   style="stroke:none"
   d=""
   id="id-313b51a2-fe9f-4dba-9f11-a1e602dfc526" />
      </symbol>
      <symbol
   overflow="visible"
   id="id-07de9844-7ff7-4588-8af6-1de48cbccacd">
        <path
   style="stroke:none"
   d="m 2.015625,-3.296875 c 0.0625,-0.109375 0.0625,-0.171875 0.0625,-0.21875 0,-0.21875 -0.1875,-0.375 -0.40625,-0.375 -0.265625,0 -0.34375,0.21875 -0.375,0.328125 L 0.375,-0.546875 c -0.015625,0.015625 -0.046875,0.09375 -0.046875,0.109375 0,0.078125 0.21875,0.15625 0.28125,0.15625 0.046875,0 0.046875,-0.015625 0.09375,-0.125 z m 0,0"
   id="id-8a8a81b2-a831-4ae5-a7a2-e265eb4b851a" />
      </symbol>
      <symbol
   overflow="visible"
   id="id-e82a7730-67eb-4442-9b16-8dc5b0491f69">
        <path
   style="stroke:none"
   d=""
   id="id-160486fa-cf09-4c3d-b02e-e22dcc0af4c3" />
      </symbol>
      <symbol
   overflow="visible"
   id="id-704a4698-66d2-4941-856b-4e06f734f73e">
        <path
   style="stroke:none"
   d="M 2.46875,-5.21875 C 1.15625,-4.296875 0.796875,-2.8125 0.796875,-1.75 c 0,0.984375 0.296875,2.515625 1.671875,3.484375 0.0625,0 0.140625,0 0.140625,-0.078125 0,-0.046875 -0.015625,-0.0625 -0.0625,-0.109375 C 1.609375,0.703125 1.28125,-0.46875 1.28125,-1.734375 1.28125,-3.625 2,-4.546875 2.5625,-5.0625 2.59375,-5.09375 2.609375,-5.109375 2.609375,-5.140625 2.609375,-5.21875 2.53125,-5.21875 2.46875,-5.21875 Z m 0,0"
   id="id-977a3939-5120-49d4-b461-5ec36874b973" />
      </symbol>
      <symbol
   overflow="visible"
   id="id-4c84713c-112c-49fb-b7de-13be03c37226">
        <path
   style="stroke:none"
   d="m 1.90625,-2.328125 c 0.546875,0 0.9375,0.375 0.9375,1.125 0,0.859375 -0.515625,1.125 -0.90625,1.125 -0.28125,0 -0.90625,-0.078125 -1.1875,-0.5 0.328125,0 0.40625,-0.234375 0.40625,-0.390625 0,-0.21875 -0.171875,-0.375 -0.390625,-0.375 -0.1875,0 -0.390625,0.125 -0.390625,0.40625 0,0.65625 0.71875,1.078125 1.5625,1.078125 0.96875,0 1.640625,-0.65625 1.640625,-1.34375 0,-0.546875 -0.4375,-1.09375 -1.203125,-1.25 0.71875,-0.265625 0.984375,-0.78125 0.984375,-1.21875 0,-0.546875 -0.625,-0.953125 -1.40625,-0.953125 -0.765625,0 -1.359375,0.375 -1.359375,0.9375 0,0.234375 0.15625,0.359375 0.359375,0.359375 0.21875,0 0.359375,-0.15625 0.359375,-0.34375 0,-0.203125 -0.140625,-0.359375 -0.359375,-0.375 0.25,-0.296875 0.71875,-0.375 0.984375,-0.375 0.3125,0 0.75,0.15625 0.75,0.75 0,0.296875 -0.09375,0.625 -0.28125,0.828125 -0.21875,0.265625 -0.421875,0.28125 -0.765625,0.3125 -0.171875,0.015625 -0.1875,0.015625 -0.21875,0.015625 -0.015625,0 -0.078125,0.015625 -0.078125,0.09375 0,0.09375 0.0625,0.09375 0.1875,0.09375 z m 0,0"
   id="id-c5e502aa-6037-4a02-9951-e3daa231792e" />
      </symbol>
      <symbol
   overflow="visible"
   id="id-b03843da-ac3d-48a9-a2e5-33d6fe6d2111">
        <path
   style="stroke:none"
   d="m 0.625,-5.21875 c -0.046875,0 -0.125,0 -0.125,0.078125 0,0.03125 0.015625,0.046875 0.0625,0.109375 0.59375,0.546875 1.265625,1.484375 1.265625,3.28125 0,1.453125 -0.453125,2.5625 -1.203125,3.234375 -0.125,0.125 -0.125,0.125 -0.125,0.171875 0,0.03125 0.015625,0.078125 0.078125,0.078125 0.09375,0 0.75,-0.453125 1.21875,-1.328125 0.296875,-0.578125 0.5,-1.328125 0.5,-2.140625 C 2.296875,-2.71875 2,-4.25 0.625,-5.21875 Z m 0,0"
   id="id-139e3e15-ba12-4492-bdea-c21a569c2cbb" />
      </symbol>
      <symbol
   overflow="visible"
   id="id-821f1689-e052-4b14-a5dc-83042dee52c0">
        <path
   style="stroke:none"
   d="M 3.515625,-1.265625 H 3.28125 c -0.015625,0.15625 -0.09375,0.5625 -0.1875,0.625 C 3.046875,-0.59375 2.515625,-0.59375 2.40625,-0.59375 H 1.125 c 0.734375,-0.640625 0.984375,-0.84375 1.390625,-1.171875 0.515625,-0.40625 1,-0.84375 1,-1.5 0,-0.84375 -0.734375,-1.359375 -1.625,-1.359375 -0.859375,0 -1.453125,0.609375 -1.453125,1.25 0,0.34375 0.296875,0.390625 0.375,0.390625 0.15625,0 0.359375,-0.125 0.359375,-0.375 0,-0.125 -0.046875,-0.375 -0.40625,-0.375 C 0.984375,-4.21875 1.453125,-4.375 1.78125,-4.375 c 0.703125,0 1.0625,0.546875 1.0625,1.109375 0,0.609375 -0.4375,1.078125 -0.65625,1.328125 L 0.515625,-0.265625 C 0.4375,-0.203125 0.4375,-0.1875 0.4375,0 h 2.875 z m 0,0"
   id="id-f624a911-d39e-4bcc-93a4-7e5c6dc3aa62" />
      </symbol>
    </g></defs><sodipodi:namedview
   id="namedview3"
   pagecolor="#ffffff"
   bordercolor="#000000"
   borderopacity="0.25"
   inkscape:showpageshadow="2"
   inkscape:pageopacity="0.0"
   inkscape:pagecheckerboard="0"
   inkscape:deskcolor="#d1d1d1"
   showgrid="false"
   inkscape:zoom="5.2812038"
   inkscape:cx="965.12087"
   inkscape:cy="424.71377"
   inkscape:window-width="1920"
   inkscape:window-height="997"
   inkscape:window-x="0"
   inkscape:window-y="0"
   inkscape:window-maximized="1"
   inkscape:current-layer="Layer_1" />
<rect
   style="fill:url(#pattern2335);fill-opacity:1;stroke:none;stroke-width:1.41973"
   width="176.51247"
   height="165.41653"
   x="873.62378"
   y="356.40909"
   id="rect2280"
   transform="matrix(0.99999426,0.00338836,0,1,0,0)"
   ry="0" /><ellipse
   style="opacity:0.79;fill:#333333;fill-opacity:1;stroke:#000000;stroke-width:0.0318844;stroke-miterlimit:5.2;stroke-dasharray:none;paint-order:stroke fill markers"
   id="path2-7-2-3"
   cx="1031.4884"
   cy="404.59268"
   rx="3.4840577"
   ry="3.4840579" /><ellipse
   style="opacity:0.79;fill:#333333;fill-opacity:1;stroke:#000000;stroke-width:0.0318844;stroke-miterlimit:5.2;stroke-dasharray:none;paint-order:stroke fill markers"
   id="path2-7-2-6"
   cx="995.17059"
   cy="460.83148"
   rx="3.4840577"
   ry="3.4840579" /><ellipse
   style="opacity:0.79;fill:#333333;fill-opacity:1;stroke:#000000;stroke-width:0.0318844;stroke-miterlimit:5.2;stroke-dasharray:none;paint-order:stroke fill markers"
   id="path2-7-2-06"
   cx="923.45807"
   cy="460.20206"
   rx="3.4840577"
   ry="3.4840579" /><path
   style="fill:none;fill-rule:evenodd;stroke:#4038c5;stroke-width:0.5;stroke-linecap:butt;stroke-linejoin:miter;stroke-dasharray:3, 1;stroke-dashoffset:0;stroke-opacity:1"
   d="m 959.38105,382.19133 0.11088,122.33473"
   id="path2556"
   inkscape:connector-type="polyline"
   inkscape:connector-curvature="0" /><path
   style="fill:none;fill-rule:evenodd;stroke:#5a4ccf;stroke-width:0.5;stroke-linecap:butt;stroke-linejoin:miter;stroke-dasharray:3, 1;stroke-dashoffset:0;stroke-opacity:1"
   d="m 903.6271,412.76168 106.9507,56.04695"
   id="path2558"
   inkscape:connector-type="polyline"
   inkscape:connector-curvature="0" /><path
   style="fill:none;fill-rule:evenodd;stroke:#3538c3;stroke-width:0.5;stroke-linecap:butt;stroke-linejoin:miter;stroke-dasharray:3, 1;stroke-dashoffset:0;stroke-opacity:1"
   d="m 904.2184,471.11772 110.4585,-57.54064"
   id="path2560"
   inkscape:connector-type="polyline"
   inkscape:connector-curvature="0" /><ellipse
   style="opacity:0.79;fill:#333333;fill-opacity:1;stroke:#000000;stroke-width:0.0318844;stroke-miterlimit:5.2;stroke-dasharray:none;paint-order:stroke fill markers"
   id="path2-7-2"
   cx="959.35822"
   cy="404.52209"
   rx="3.4840577"
   ry="3.4840579" /><ellipse
   style="opacity:0.79;fill:#333333;fill-opacity:1;stroke:#000000;stroke-width:0.0318844;stroke-miterlimit:5.2;stroke-dasharray:none;paint-order:stroke fill markers"
   id="path2-7-2-2"
   cx="888.12067"
   cy="404.50745"
   rx="3.4840577"
   ry="3.4840579" /><ellipse
   style="opacity:0.79;fill:#333333;fill-opacity:1;stroke:#000000;stroke-width:0.0318844;stroke-miterlimit:5.2;stroke-dasharray:none;paint-order:stroke fill markers"
   id="path2-7-2-2-3"
   cx="888.12128"
   cy="366.68936"
   rx="3.4840577"
   ry="3.4840579" /><ellipse
   style="opacity:0.79;fill:#333333;fill-opacity:1;stroke:#000000;stroke-width:0.0318844;stroke-miterlimit:5.2;stroke-dasharray:none;paint-order:stroke fill markers"
   id="path2-7-2-7"
   cx="888.23425"
   cy="517.52417"
   rx="3.4840577"
   ry="3.4840579" /><ellipse
   style="opacity:0.79;fill:#333333;fill-opacity:1;stroke:#000000;stroke-width:0.0318844;stroke-miterlimit:5.2;stroke-dasharray:none;paint-order:stroke fill markers"
   id="path2-7-2-0"
   cx="959.96228"
   cy="517.29663"
   rx="3.4840577"
   ry="3.4840579" /><ellipse
   style="opacity:0.79;fill:#333333;fill-opacity:1;stroke:#000000;stroke-width:0.0318844;stroke-miterlimit:5.2;stroke-dasharray:none;paint-order:stroke fill markers"
   id="path2-7-2-9"
   cx="1031.5209"
   cy="518.02002"
   rx="3.4840577"
   ry="3.4840579" /><g
   transform="matrix(0.547821,0,0,0.606643,961.47073,434.33159)"
   ns8:version="1.8.2"
   ns8:texconverter="pdflatex"
   ns8:pdfconverter="inkscape"
   ns8:text="$I$"
   ns8:preamble="/usr/share/inkscape/extensions/textext/default_packages.tex"
   ns8:scale="0.4323627636523064"
   ns8:alignment="middle center"
   ns8:stroke-to-path="0"
   ns8:jacobian_sqrt="0.5764822416198092"
   id="g9308"><defs
   id="id-8d327ea8-9ee1-4490-a566-e4817e0447db">
    <g
   id="id-903130c4-4ae6-4c57-bf33-fa71faa14701">
      <symbol
   overflow="visible"
   id="id-f092c1a0-ec85-4d6a-ae6c-85b2a850765d">
        <path
   style="stroke:none"
   d=""
   id="id-f764c4b2-0e5a-4841-a238-0f7deacd55ad" />
      </symbol>
      <symbol
   overflow="visible"
   id="id-a4826626-129d-4eec-ba4a-4d089356e858">
        <path
   style="stroke:none"
   d="M 3.734375,-6.046875 C 3.8125,-6.40625 3.84375,-6.5 4.640625,-6.5 c 0.234375,0 0.3125,0 0.3125,-0.1875 0,-0.125 -0.109375,-0.125 -0.140625,-0.125 -0.296875,0 -1.03125,0.03125 -1.328125,0.03125 -0.296875,0 -1.015625,-0.03125 -1.328125,-0.03125 -0.0625,0 -0.1875,0 -0.1875,0.203125 C 1.96875,-6.5 2.046875,-6.5 2.25,-6.5 c 0.40625,0 0.6875,0 0.6875,0.1875 0,0.046875 0,0.078125 -0.03125,0.15625 l -1.34375,5.375 c -0.09375,0.375 -0.109375,0.46875 -0.90625,0.46875 -0.234375,0 -0.3125,0 -0.3125,0.203125 C 0.34375,0 0.453125,0 0.484375,0 0.78125,0 1.5,-0.03125 1.796875,-0.03125 2.09375,-0.03125 2.828125,0 3.125,0 c 0.078125,0 0.203125,0 0.203125,-0.1875 0,-0.125 -0.078125,-0.125 -0.296875,-0.125 -0.1875,0 -0.234375,0 -0.421875,-0.015625 -0.21875,-0.015625 -0.25,-0.0625 -0.25,-0.171875 0,-0.078125 0.015625,-0.15625 0.03125,-0.234375 z m 0,0"
   id="id-4a6d357a-d74f-4bc7-851b-bbd799c1c4d4" />
      </symbol>
    </g>
  </defs>
  <g
   id="id-3656b2e5-ef56-41c2-b65f-b0764eec3115"
   transform="translate(-149.056,-127.953)">
    <g
   style="fill:#000000;fill-opacity:1"
   id="id-87a02abc-dddf-47af-9355-a0827c572024">
      <g
   transform="translate(148.712,134.765)"
   id="g4343"><path
   style="stroke:none"
   d="M 3.734375,-6.046875 C 3.8125,-6.40625 3.84375,-6.5 4.640625,-6.5 c 0.234375,0 0.3125,0 0.3125,-0.1875 0,-0.125 -0.109375,-0.125 -0.140625,-0.125 -0.296875,0 -1.03125,0.03125 -1.328125,0.03125 -0.296875,0 -1.015625,-0.03125 -1.328125,-0.03125 -0.0625,0 -0.1875,0 -0.1875,0.203125 C 1.96875,-6.5 2.046875,-6.5 2.25,-6.5 c 0.40625,0 0.6875,0 0.6875,0.1875 0,0.046875 0,0.078125 -0.03125,0.15625 l -1.34375,5.375 c -0.09375,0.375 -0.109375,0.46875 -0.90625,0.46875 -0.234375,0 -0.3125,0 -0.3125,0.203125 C 0.34375,0 0.453125,0 0.484375,0 0.78125,0 1.5,-0.03125 1.796875,-0.03125 2.09375,-0.03125 2.828125,0 3.125,0 c 0.078125,0 0.203125,0 0.203125,-0.1875 0,-0.125 -0.078125,-0.125 -0.296875,-0.125 -0.1875,0 -0.234375,0 -0.421875,-0.015625 -0.21875,-0.015625 -0.25,-0.0625 -0.25,-0.171875 0,-0.078125 0.015625,-0.15625 0.03125,-0.234375 z m 0,0"
   id="id-32b20940-0d1a-4d7e-922f-9f3ef788e0e0" />
      </g></g>
  </g>
</g><ellipse
   style="opacity:0.79;fill:#333333;fill-opacity:1;stroke:#000000;stroke-width:0.0318844;stroke-miterlimit:5.2;stroke-dasharray:none;paint-order:stroke fill markers"
   id="path2-7-2-2-6"
   cx="959.55322"
   cy="366.82547"
   rx="3.4840577"
   ry="3.4840579" /><ellipse
   style="opacity:0.79;fill:#333333;fill-opacity:1;stroke:#000000;stroke-width:0.0318844;stroke-miterlimit:5.2;stroke-dasharray:none;paint-order:stroke fill markers"
   id="path2-7-2-2-7"
   cx="1031.3107"
   cy="367.20416"
   rx="3.4840577"
   ry="3.4840579" /><ellipse
   style="opacity:0.79;fill:#333333;fill-opacity:1;stroke:#000000;stroke-width:0.0318844;stroke-miterlimit:5.2;stroke-dasharray:none;paint-order:stroke fill markers"
   id="path2-7-2-2-5"
   cx="995.06805"
   cy="423.39349"
   rx="3.4840577"
   ry="3.4840579" /><ellipse
   style="opacity:0.79;fill:#333333;fill-opacity:1;stroke:#000000;stroke-width:0.0318844;stroke-miterlimit:5.2;stroke-dasharray:none;paint-order:stroke fill markers"
   id="path2-7-2-2-35"
   cx="924.06805"
   cy="423.55325"
   rx="3.4840577"
   ry="3.4840579" /><ellipse
   style="opacity:0.79;fill:#333333;fill-opacity:1;stroke:#000000;stroke-width:0.0318844;stroke-miterlimit:5.2;stroke-dasharray:none;paint-order:stroke fill markers"
   id="path2-7-2-2-62"
   cx="888.25739"
   cy="479.31064"
   rx="3.4840577"
   ry="3.4840579" /><ellipse
   style="opacity:0.79;fill:#333333;fill-opacity:1;stroke:#000000;stroke-width:0.0318844;stroke-miterlimit:5.2;stroke-dasharray:none;paint-order:stroke fill markers"
   id="path2-7-2-2-9"
   cx="959.55322"
   cy="480.12131"
   rx="3.4840577"
   ry="3.4840579" /><ellipse
   style="opacity:0.79;fill:#333333;fill-opacity:1;stroke:#000000;stroke-width:0.0318844;stroke-miterlimit:5.2;stroke-dasharray:none;paint-order:stroke fill markers"
   id="path2-7-2-2-1"
   cx="1031.0385"
   cy="479.87869"
   rx="3.4840577"
   ry="3.4840579" /></svg>
