<?xml version="1.0" encoding="UTF-8" standalone="no"?>
<!-- Generator: Adobe Illustrator 28.2.0, SVG Export Plug-In . SVG Version: 6.00 Build 0)  -->

<svg
   version="1.1"
   id="Layer_1"
   x="0px"
   y="0px"
   viewBox="0 0 1366 768"
   style="enable-background:new 0 0 1366 768;"
   xml:space="preserve"
   sodipodi:docname="symmetry.svg"
   inkscape:version="1.3.2 (091e20ef0f, 2023-11-25)"
   xmlns:inkscape="http://www.inkscape.org/namespaces/inkscape"
   xmlns:sodipodi="http://sodipodi.sourceforge.net/DTD/sodipodi-0.dtd"
   xmlns:xlink="http://www.w3.org/1999/xlink"
   xmlns="http://www.w3.org/2000/svg"
   xmlns:svg="http://www.w3.org/2000/svg"><sodipodi:namedview
   id="namedview1"
   pagecolor="#ffffff"
   bordercolor="#000000"
   borderopacity="0.25"
   inkscape:showpageshadow="2"
   inkscape:pageopacity="0.0"
   inkscape:pagecheckerboard="0"
   inkscape:deskcolor="#d1d1d1"
   inkscape:zoom="0.62591508"
   inkscape:cx="659.03509"
   inkscape:cy="466.51696"
   inkscape:window-width="1536"
   inkscape:window-height="864"
   inkscape:window-x="0"
   inkscape:window-y="0"
   inkscape:window-maximized="1"
   inkscape:current-layer="g1" /><defs
   id="defs1"><marker
     style="overflow:visible"
     id="ConcaveTriangle"
     refX="0"
     refY="0"
     orient="auto-start-reverse"
     inkscape:stockid="Concave triangle arrow"
     markerWidth="1"
     markerHeight="1"
     viewBox="0 0 1 1"
     inkscape:isstock="true"
     inkscape:collect="always"
     preserveAspectRatio="xMidYMid"><path
       transform="scale(0.7)"
       d="M -2,-4 9,0 -2,4 c 2,-2.33 2,-5.66 0,-8 z"
       style="fill:context-stroke;fill-rule:evenodd;stroke:none"
       id="path42" /></marker><inkscape:path-effect
     effect="bspline"
     id="path-effect40"
     is_visible="true"
     lpeversion="1.3"
     weight="33.333333"
     steps="2"
     helper_size="0"
     apply_no_weight="true"
     apply_with_weight="true"
     only_selected="false"
     uniform="false" /><inkscape:path-effect
     effect="bspline"
     id="path-effect38"
     is_visible="true"
     lpeversion="1.3"
     weight="33.333333"
     steps="2"
     helper_size="0"
     apply_no_weight="true"
     apply_with_weight="true"
     only_selected="false"
     uniform="false" /><inkscape:path-effect
     effect="bspline"
     id="path-effect37"
     is_visible="true"
     lpeversion="1.3"
     weight="33.333333"
     steps="2"
     helper_size="0"
     apply_no_weight="true"
     apply_with_weight="true"
     only_selected="false"
     uniform="false" /><inkscape:path-effect
     effect="bspline"
     id="path-effect36"
     is_visible="true"
     lpeversion="1.3"
     weight="33.333333"
     steps="2"
     helper_size="0"
     apply_no_weight="true"
     apply_with_weight="true"
     only_selected="false"
     uniform="false" /><inkscape:path-effect
     effect="bspline"
     id="path-effect35"
     is_visible="true"
     lpeversion="1.3"
     weight="33.333333"
     steps="2"
     helper_size="0"
     apply_no_weight="true"
     apply_with_weight="true"
     only_selected="false"
     uniform="false" /><pattern
     inkscape:collect="always"
     xlink:href="#Hexagons"
     preserveAspectRatio="xMidYMid"
     id="pattern2"
     patternTransform="matrix(3.666,0,0,3.666,1,1)"
     x="0"
     y="11" /><pattern
     patternUnits="userSpaceOnUse"
     width="100"
     height="87"
     preserveAspectRatio="xMidYMid"
     patternTransform="translate(1,1) scale(0.5,0.5)"
     style="fill:#aaaaaa"
     id="Hexagons"
     inkscape:label="Hexagons packing grid"
     inkscape:collect="always"
     inkscape:isstock="true"><path
       id="path27"
       style="stroke:none"
       d="M 23.246093,0 0,13.382812 V 44.689453 L 0.0839844,44.640625 24.033203,58.505859 24.001953,86.332031 22.841796,87 h 4.478516 L 26.068359,86.275391 26.099609,58.449219 50.083984,44.640625 74.033203,58.505859 74.001953,86.332031 72.841796,87 h 4.478516 L 76.068359,86.275391 76.099609,58.449219 100,44.689453 V 13.365234 L 76.919921,0 H 73.246093 L 50.015625,13.373047 26.919921,0 Z M 25.083984,1.25 49.033203,15.115234 49.001953,42.941406 25.017578,56.75 1.0019531,42.845703 l 0.033203,-27.75 z m 50,0 24.017576,13.904297 -0.0352,27.75 L 75.017578,56.75 51.068359,42.884766 51.099609,15.058594 Z" /></pattern></defs>
<g
   id="g1"
   transform="translate(228.692, -0.59084)"><rect
     style="opacity:0.79;fill:url(#pattern2);fill-opacity:1;stroke:#000000;stroke-width:1.98049;stroke-miterlimit:5.2;paint-order:stroke fill markers"
     id="rect1"
     width="640.98047"
     height="497.64035"
     x="114.29817"
     y="151.58109" /><circle
     style="opacity:0.79;fill:#b30000;fill-opacity:1;stroke:#000000;stroke-width:0.0683238;stroke-miterlimit:5.2;stroke-dasharray:none;paint-order:stroke fill markers"
     id="path2-75"
     cx="734.53314"
     cy="413.35529"
     r="7.465838" /><circle
     style="opacity:0.79;fill:#b30000;fill-opacity:1;stroke:#000000;stroke-width:0.0683238;stroke-miterlimit:5.2;stroke-dasharray:none;paint-order:stroke fill markers"
     id="path2-20"
     cx="642.66541"
     cy="571.80035"
     r="7.465838" /><circle
     style="opacity:0.79;fill:#b30000;fill-opacity:1;stroke:#000000;stroke-width:0.0683238;stroke-miterlimit:5.2;stroke-dasharray:none;paint-order:stroke fill markers"
     id="path2-8"
     cx="459.74725"
     cy="572.33276"
     r="7.465838" /><circle
     style="opacity:0.79;fill:#b30000;fill-opacity:1;stroke:#000000;stroke-width:0.0683238;stroke-miterlimit:5.2;stroke-dasharray:none;paint-order:stroke fill markers"
     id="path2-2"
     cx="551.5"
     cy="413.5"
     r="7.465838" /><circle
     style="opacity:0.79;fill:#b30000;fill-opacity:1;stroke:#000000;stroke-width:0.0683238;stroke-miterlimit:5.2;stroke-dasharray:none;paint-order:stroke fill markers"
     id="path2-6"
     cx="642.7984"
     cy="253.43633"
     r="7.465838" /><circle
     style="opacity:0.79;fill:#b30000;fill-opacity:1;stroke:#000000;stroke-width:0.0683238;stroke-miterlimit:5.2;stroke-dasharray:none;paint-order:stroke fill markers"
     id="path2-70"
     cx="459.26923"
     cy="254.42041"
     r="7.465838" /><circle
     style="opacity:0.79;fill:#b30000;fill-opacity:1;stroke:#000000;stroke-width:0.0683238;stroke-miterlimit:5.2;stroke-dasharray:none;paint-order:stroke fill markers"
     id="path2-9"
     cx="276.50006"
     cy="253.5"
     r="7.465838" /><ellipse
     style="opacity:0.79;fill:#b30000;fill-opacity:1;stroke:#000000;stroke-width:0.0683238;stroke-miterlimit:5.2;stroke-dasharray:none;paint-order:stroke fill markers"
     id="path2-5"
     cx="276.50024"
     cy="571.5"
     rx="7.465838"
     ry="7.4658384" /><circle
     style="opacity:0.79;fill:#b30000;fill-opacity:1;stroke:#000000;stroke-width:0.0683238;stroke-miterlimit:5.2;stroke-dasharray:none;paint-order:stroke fill markers"
     id="path2"
     cx="367.93802"
     cy="412.63138"
     r="7.465838" /><circle
     style="opacity:0.79;fill:#b30000;fill-opacity:1;stroke:#000000;stroke-width:0.0683238;stroke-miterlimit:5.2;stroke-dasharray:none;paint-order:stroke fill markers"
     id="path2-7"
     cx="184.40654"
     cy="413.19315"
     r="7.465838" /><circle
     style="opacity:0.79;fill:#333333;fill-opacity:1;stroke:#000000;stroke-width:0.0683238;stroke-miterlimit:5.2;stroke-dasharray:none;paint-order:stroke fill markers"
     id="path2-7-2"
     cx="185.19731"
     cy="519.52509"
     r="7.465838" /><circle
     style="opacity:0.79;fill:#333333;fill-opacity:1;stroke:#000000;stroke-width:0.0683238;stroke-miterlimit:5.2;stroke-dasharray:none;paint-order:stroke fill markers"
     id="path2-7-2-7"
     cx="368.07327"
     cy="520.02209"
     r="7.465838" /><circle
     style="opacity:0.79;fill:#333333;fill-opacity:1;stroke:#000000;stroke-width:0.0683238;stroke-miterlimit:5.2;stroke-dasharray:none;paint-order:stroke fill markers"
     id="path2-7-2-1"
     cx="551.09442"
     cy="519.48792"
     r="7.465838" /><circle
     style="opacity:0.79;fill:#333333;fill-opacity:1;stroke:#000000;stroke-width:0.0683238;stroke-miterlimit:5.2;stroke-dasharray:none;paint-order:stroke fill markers"
     id="path2-7-2-3"
     cx="642.89191"
     cy="359.94553"
     r="7.465838" /><circle
     style="opacity:0.79;fill:#333333;fill-opacity:1;stroke:#000000;stroke-width:0.0683238;stroke-miterlimit:5.2;stroke-dasharray:none;paint-order:stroke fill markers"
     id="path2-7-2-4"
     cx="734.97052"
     cy="519.63098"
     r="7.465838" /><circle
     style="opacity:0.79;fill:#333333;fill-opacity:1;stroke:#000000;stroke-width:0.0683238;stroke-miterlimit:5.2;stroke-dasharray:none;paint-order:stroke fill markers"
     id="path2-7-2-45"
     cx="276.09863"
     cy="360.48236"
     r="7.465838" /><circle
     style="opacity:0.79;fill:#333333;fill-opacity:1;stroke:#000000;stroke-width:0.0683238;stroke-miterlimit:5.2;stroke-dasharray:none;paint-order:stroke fill markers"
     id="path2-7-2-45-7"
     cx="459.72995"
     cy="360.94885"
     r="7.465838" /><circle
     style="opacity:0.79;fill:#333333;fill-opacity:1;stroke:#000000;stroke-width:0.0683238;stroke-miterlimit:5.2;stroke-dasharray:none;paint-order:stroke fill markers"
     id="path2-7-2-6"
     cx="185.04559"
     cy="200.86128"
     r="7.465838" /><circle
     style="opacity:0.79;fill:#333333;fill-opacity:1;stroke:#000000;stroke-width:0.0683238;stroke-miterlimit:5.2;stroke-dasharray:none;paint-order:stroke fill markers"
     id="path2-7-2-63"
     cx="368.00775"
     cy="201.00073"
     r="7.465838" /><circle
     style="opacity:0.79;fill:#333333;fill-opacity:1;stroke:#000000;stroke-width:0.0683238;stroke-miterlimit:5.2;stroke-dasharray:none;paint-order:stroke fill markers"
     id="path2-7-2-61"
     cx="551.03632"
     cy="200.59995"
     r="7.465838" /><circle
     style="opacity:0.79;fill:#333333;fill-opacity:1;stroke:#000000;stroke-width:0.0683238;stroke-miterlimit:5.2;stroke-dasharray:none;paint-order:stroke fill markers"
     id="path2-7-2-47"
     cx="734.5"
     cy="201.5"
     r="7.465838" /><g
     inkscape:label=""
     transform="translate(163.404,457.736)"
     id="g17">
</g><path
     style="fill:none;fill-rule:evenodd;stroke:#000000;stroke-width:1.542;stroke-linecap:butt;stroke-linejoin:miter;stroke-dasharray:12.336, 12.336;stroke-dashoffset:0;stroke-opacity:1"
     d="M 374.36918,408.97696 597.60739,281.94719"
     id="path1"
     inkscape:connector-type="polyline"
     inkscape:connector-curvature="0" /><path
     style="fill:none;fill-rule:evenodd;stroke:#000000;stroke-width:1.542;stroke-linecap:butt;stroke-linejoin:miter;stroke-dasharray:12.336, 12.336;stroke-dashoffset:0;stroke-opacity:1"
     d="M 361.45513,408.99517 132.9939,281.23942"
     id="path3"
     inkscape:connector-type="polyline"
     inkscape:connector-curvature="0" /><path
     style="fill:none;fill-rule:evenodd;stroke:#000000;stroke-width:1.542;stroke-linecap:butt;stroke-linejoin:miter;stroke-dasharray:12.336, 12.336;stroke-dashoffset:0;stroke-opacity:1"
     d="m 367.9131,420.09137 -0.44623,203.47558"
     id="path4"
     inkscape:connector-type="polyline"
     inkscape:connector-curvature="0" /><g
     inkscape:label=""
     transform="translate(125.65988,294.48908)"
     id="g6"><g
   fill="#000000"
   fill-opacity="1"
   id="g3"
   transform="matrix(1.33333,0,0,1.33333,-3.40733,-2.37283)">
    <g
   id="use2"
   transform="translate(1.993,10.889)">
      <path
   d="m 5.4375,2.3125 c -0.5625,0.78125 -1.375,1.484375 -2.375,1.484375 -0.25,0 -1.25,-0.03125 -1.546875,-0.984375 C 1.5625,2.828125 1.671875,2.828125 1.71875,2.828125 2.328125,2.828125 2.75,2.296875 2.75,1.8125 2.75,1.34375 2.359375,1.171875 2.046875,1.171875 c -0.328125,0 -1.0625,0.25 -1.0625,1.265625 0,1.046875 0.890625,1.78125 2.078125,1.78125 2.0625,0 4.140625,-1.90625 4.71875,-4.203125 L 9.8125,-8.03125 c 0.015625,-0.109375 0.0625,-0.234375 0.0625,-0.359375 0,-0.3125 -0.25,-0.515625 -0.5625,-0.515625 -0.1875,0 -0.609375,0.09375 -0.78125,0.703125 L 7,-2.125 c -0.09375,0.375 -0.09375,0.40625 -0.265625,0.640625 -0.40625,0.578125 -1.09375,1.28125 -2.09375,1.28125 -1.15625,0 -1.25,-1.140625 -1.25,-1.703125 0,-1.171875 0.5625,-2.765625 1.109375,-4.25 0.234375,-0.59375 0.359375,-0.890625 0.359375,-1.296875 0,-0.875 -0.625,-1.65625 -1.640625,-1.65625 -1.890625,0 -2.65625,3 -2.65625,3.15625 0,0.09375 0.078125,0.1875 0.21875,0.1875 0.1875,0 0.203125,-0.078125 0.296875,-0.375 0.484375,-1.734375 1.28125,-2.5625 2.078125,-2.5625 0.1875,0 0.546875,0 0.546875,0.6875 0,0.53125 -0.234375,1.140625 -0.546875,1.921875 -1.015625,2.703125 -1.015625,3.390625 -1.015625,3.890625 0,1.953125 1.40625,2.40625 2.4375,2.40625 0.609375,0 1.34375,-0.1875 2.078125,-0.953125 l 0.015625,0.03125 C 6.359375,0.5 6.15625,1.296875 5.4375,2.3125 Z m 0,0"
   id="path5" />
    </g>
  </g>
  <g
   fill="#000000"
   fill-opacity="1"
   id="g4"
   transform="matrix(1.33333,0,0,1.33333,-3.40733,-2.37283)">
    <g
   id="use3"
   transform="translate(11.857,13.988)">
      <path
   d="m 4.125,-9.1875 c 0,-0.34375 0,-0.34375 -0.28125,-0.34375 C 3.5,-9.15625 2.78125,-8.625 1.3125,-8.625 v 0.421875 c 0.328125,0 1.046875,0 1.828125,-0.375 v 7.46875 c 0,0.515625 -0.046875,0.6875 -1.296875,0.6875 H 1.390625 V 0 c 0.390625,-0.03125 1.78125,-0.03125 2.25,-0.03125 0.46875,0 1.859375,0 2.234375,0.03125 V -0.421875 H 5.4375 c -1.265625,0 -1.3125,-0.171875 -1.3125,-0.6875 z m 0,0"
   id="path6" />
    </g>
  </g>
</g><g
     inkscape:label=""
     transform="translate(377.87661,607.04877)"
     id="g11"><g
   fill="#000000"
   fill-opacity="1"
   id="g8"
   transform="matrix(1.33333,0,0,1.33333,-3.40733,-2.37283)">
    <g
   id="g7"
   transform="translate(1.993,10.889)">
      <path
   d="m 5.4375,2.3125 c -0.5625,0.78125 -1.375,1.484375 -2.375,1.484375 -0.25,0 -1.25,-0.03125 -1.546875,-0.984375 C 1.5625,2.828125 1.671875,2.828125 1.71875,2.828125 2.328125,2.828125 2.75,2.296875 2.75,1.8125 2.75,1.34375 2.359375,1.171875 2.046875,1.171875 c -0.328125,0 -1.0625,0.25 -1.0625,1.265625 0,1.046875 0.890625,1.78125 2.078125,1.78125 2.0625,0 4.140625,-1.90625 4.71875,-4.203125 L 9.8125,-8.03125 c 0.015625,-0.109375 0.0625,-0.234375 0.0625,-0.359375 0,-0.3125 -0.25,-0.515625 -0.5625,-0.515625 -0.1875,0 -0.609375,0.09375 -0.78125,0.703125 L 7,-2.125 c -0.09375,0.375 -0.09375,0.40625 -0.265625,0.640625 -0.40625,0.578125 -1.09375,1.28125 -2.09375,1.28125 -1.15625,0 -1.25,-1.140625 -1.25,-1.703125 0,-1.171875 0.5625,-2.765625 1.109375,-4.25 0.234375,-0.59375 0.359375,-0.890625 0.359375,-1.296875 0,-0.875 -0.625,-1.65625 -1.640625,-1.65625 -1.890625,0 -2.65625,3 -2.65625,3.15625 0,0.09375 0.078125,0.1875 0.21875,0.1875 0.1875,0 0.203125,-0.078125 0.296875,-0.375 0.484375,-1.734375 1.28125,-2.5625 2.078125,-2.5625 0.1875,0 0.546875,0 0.546875,0.6875 0,0.53125 -0.234375,1.140625 -0.546875,1.921875 -1.015625,2.703125 -1.015625,3.390625 -1.015625,3.890625 0,1.953125 1.40625,2.40625 2.4375,2.40625 0.609375,0 1.34375,-0.1875 2.078125,-0.953125 l 0.015625,0.03125 C 6.359375,0.5 6.15625,1.296875 5.4375,2.3125 Z m 0,0"
   id="path7" />
    </g>
  </g>
  <g
   fill="#000000"
   fill-opacity="1"
   id="g10"
   transform="matrix(1.33333,0,0,1.33333,-3.40733,-2.37283)">
    <g
   id="g9"
   transform="translate(11.857,13.988)">
      <path
   d="M 6.3125,-2.40625 H 6 c -0.046875,0.234375 -0.15625,1.03125 -0.3125,1.265625 -0.09375,0.125 -0.90625,0.125 -1.34375,0.125 H 1.6875 c 0.390625,-0.328125 1.265625,-1.25 1.640625,-1.59375 2.1875,-2.015625 2.984375,-2.75 2.984375,-4.171875 0,-1.65625 -1.3125,-2.75 -2.96875,-2.75 -1.671875,0 -2.640625,1.40625 -2.640625,2.640625 0,0.734375 0.625,0.734375 0.671875,0.734375 0.296875,0 0.671875,-0.21875 0.671875,-0.671875 C 2.046875,-7.234375 1.78125,-7.5 1.375,-7.5 1.25,-7.5 1.21875,-7.5 1.171875,-7.484375 1.453125,-8.46875 2.21875,-9.125 3.15625,-9.125 4.375,-9.125 5.125,-8.109375 5.125,-6.78125 5.125,-5.5625 4.421875,-4.5 3.59375,-3.578125 L 0.703125,-0.34375 V 0 H 5.9375 Z m 0,0"
   id="path8" />
    </g>
  </g>
</g><g
     inkscape:label=""
     transform="translate(569.19641,262.19199)"
     id="g16"><g
   fill="#000000"
   fill-opacity="1"
   id="g13"
   transform="matrix(1.33333,0,0,1.33333,-3.40733,-2.37283)">
    <g
   id="g12"
   transform="translate(1.993,10.889)">
      <path
   d="m 5.4375,2.3125 c -0.5625,0.78125 -1.375,1.484375 -2.375,1.484375 -0.25,0 -1.25,-0.03125 -1.546875,-0.984375 C 1.5625,2.828125 1.671875,2.828125 1.71875,2.828125 2.328125,2.828125 2.75,2.296875 2.75,1.8125 2.75,1.34375 2.359375,1.171875 2.046875,1.171875 c -0.328125,0 -1.0625,0.25 -1.0625,1.265625 0,1.046875 0.890625,1.78125 2.078125,1.78125 2.0625,0 4.140625,-1.90625 4.71875,-4.203125 L 9.8125,-8.03125 c 0.015625,-0.109375 0.0625,-0.234375 0.0625,-0.359375 0,-0.3125 -0.25,-0.515625 -0.5625,-0.515625 -0.1875,0 -0.609375,0.09375 -0.78125,0.703125 L 7,-2.125 c -0.09375,0.375 -0.09375,0.40625 -0.265625,0.640625 -0.40625,0.578125 -1.09375,1.28125 -2.09375,1.28125 -1.15625,0 -1.25,-1.140625 -1.25,-1.703125 0,-1.171875 0.5625,-2.765625 1.109375,-4.25 0.234375,-0.59375 0.359375,-0.890625 0.359375,-1.296875 0,-0.875 -0.625,-1.65625 -1.640625,-1.65625 -1.890625,0 -2.65625,3 -2.65625,3.15625 0,0.09375 0.078125,0.1875 0.21875,0.1875 0.1875,0 0.203125,-0.078125 0.296875,-0.375 0.484375,-1.734375 1.28125,-2.5625 2.078125,-2.5625 0.1875,0 0.546875,0 0.546875,0.6875 0,0.53125 -0.234375,1.140625 -0.546875,1.921875 -1.015625,2.703125 -1.015625,3.390625 -1.015625,3.890625 0,1.953125 1.40625,2.40625 2.4375,2.40625 0.609375,0 1.34375,-0.1875 2.078125,-0.953125 l 0.015625,0.03125 C 6.359375,0.5 6.15625,1.296875 5.4375,2.3125 Z m 0,0"
   id="path11" />
    </g>
  </g>
  <g
   fill="#000000"
   fill-opacity="1"
   id="g15"
   transform="matrix(1.33333,0,0,1.33333,-3.40733,-2.37283)">
    <g
   id="g14"
   transform="translate(11.857,13.988)">
      <path
   d="m 2.640625,-5.15625 c -0.25,0.015625 -0.296875,0.03125 -0.296875,0.171875 0,0.140625 0.0625,0.140625 0.328125,0.140625 h 0.65625 c 1.21875,0 1.765625,1 1.765625,2.375 0,1.875 -0.984375,2.375 -1.6875,2.375 -0.6875,0 -1.859375,-0.328125 -2.265625,-1.265625 0.453125,0.0625 0.875,-0.1875 0.875,-0.703125 0,-0.421875 -0.3125,-0.703125 -0.703125,-0.703125 -0.34375,0 -0.71875,0.203125 -0.71875,0.75 0,1.265625 1.265625,2.3125 2.859375,2.3125 1.703125,0 2.96875,-1.296875 2.96875,-2.75 0,-1.3125 -1.0625,-2.359375 -2.4375,-2.59375 1.25,-0.359375 2.046875,-1.40625 2.046875,-2.53125 0,-1.125 -1.171875,-1.953125 -2.5625,-1.953125 -1.4375,0 -2.5,0.875 -2.5,1.921875 0,0.5625 0.453125,0.6875 0.671875,0.6875 0.296875,0 0.640625,-0.21875 0.640625,-0.65625 0,-0.453125 -0.34375,-0.65625 -0.65625,-0.65625 -0.09375,0 -0.125,0 -0.15625,0.015625 0.546875,-0.96875 1.890625,-0.96875 1.953125,-0.96875 0.484375,0 1.40625,0.203125 1.40625,1.609375 0,0.28125 -0.03125,1.078125 -0.453125,1.703125 -0.4375,0.625 -0.921875,0.671875 -1.3125,0.6875 z m 0,0"
   id="path13" />
    </g>
  </g>
</g><path
     style="fill:none;fill-rule:evenodd;stroke:#0000ca;stroke-width:1.81684px;stroke-linecap:butt;stroke-linejoin:miter;stroke-dasharray:14.5347, 14.5347;stroke-dashoffset:0;stroke-opacity:0.71"
     d="M 292.00364,176.75152 450.99616,454.3216"
     id="path16"
     inkscape:connector-type="polyline"
     inkscape:connector-curvature="0" /><g
     inkscape:label=""
     transform="translate(264.71965,182.03749)"
     id="g22"><g
   fill="#000000"
   fill-opacity="1"
   id="g19"
   transform="matrix(1.33333,0,0,1.33333,-3.42817,-2.37283)">
    <g
   id="g18"
   transform="translate(1.993,10.889)">
      <path
   d="m 9.796875,-8.421875 c -0.671875,0.125 -0.921875,0.609375 -0.921875,1 0,0.5 0.40625,0.671875 0.6875,0.671875 0.625,0 1.0625,-0.546875 1.0625,-1.09375 0,-0.875 -1,-1.265625 -1.859375,-1.265625 -1.265625,0 -1.96875,1.234375 -2.15625,1.625 -0.46875,-1.546875 -1.75,-1.625 -2.125,-1.625 -2.109375,0 -3.21875,2.703125 -3.21875,3.15625 0,0.09375 0.078125,0.1875 0.21875,0.1875 0.171875,0 0.203125,-0.125 0.25,-0.203125 0.703125,-2.296875 2.09375,-2.734375 2.6875,-2.734375 0.921875,0 1.109375,0.875 1.109375,1.375 0,0.453125 -0.125,0.921875 -0.359375,1.921875 L 4.46875,-2.578125 c -0.3125,1.234375 -0.921875,2.375 -2.015625,2.375 -0.09375,0 -0.609375,0 -1.046875,-0.265625 C 2.140625,-0.625 2.3125,-1.234375 2.3125,-1.484375 2.3125,-1.90625 2,-2.140625 1.609375,-2.140625 c -0.5,0 -1.03125,0.421875 -1.03125,1.09375 0,0.859375 0.96875,1.25 1.859375,1.25 0.984375,0 1.6875,-0.78125 2.125,-1.625 0.328125,1.21875 1.359375,1.625 2.125,1.625 2.109375,0 3.234375,-2.703125 3.234375,-3.15625 0,-0.109375 -0.09375,-0.1875 -0.21875,-0.1875 -0.1875,0 -0.203125,0.109375 -0.265625,0.265625 -0.5625,1.828125 -1.75,2.671875 -2.6875,2.671875 -0.71875,0 -1.109375,-0.546875 -1.109375,-1.390625 0,-0.453125 0.078125,-0.78125 0.40625,-2.140625 l 0.734375,-2.8125 c 0.296875,-1.234375 1,-2.15625 1.953125,-2.15625 0.046875,0 0.625,0 1.0625,0.28125 z m 0,0"
   id="path17" />
    </g>
  </g>
  <g
   fill="#000000"
   fill-opacity="1"
   id="g21"
   transform="matrix(1.33333,0,0,1.33333,-3.42817,-2.37283)">
    <g
   id="g20"
   transform="translate(13.49,13.988)">
      <path
   d="m 2.640625,-5.15625 c -0.25,0.015625 -0.296875,0.03125 -0.296875,0.171875 0,0.140625 0.0625,0.140625 0.328125,0.140625 h 0.65625 c 1.21875,0 1.765625,1 1.765625,2.375 0,1.875 -0.984375,2.375 -1.6875,2.375 -0.6875,0 -1.859375,-0.328125 -2.265625,-1.265625 0.453125,0.0625 0.875,-0.1875 0.875,-0.703125 0,-0.421875 -0.3125,-0.703125 -0.703125,-0.703125 -0.34375,0 -0.71875,0.203125 -0.71875,0.75 0,1.265625 1.265625,2.3125 2.859375,2.3125 1.703125,0 2.96875,-1.296875 2.96875,-2.75 0,-1.3125 -1.0625,-2.359375 -2.4375,-2.59375 1.25,-0.359375 2.046875,-1.40625 2.046875,-2.53125 0,-1.125 -1.171875,-1.953125 -2.5625,-1.953125 -1.4375,0 -2.5,0.875 -2.5,1.921875 0,0.5625 0.453125,0.6875 0.671875,0.6875 0.296875,0 0.640625,-0.21875 0.640625,-0.65625 0,-0.453125 -0.34375,-0.65625 -0.65625,-0.65625 -0.09375,0 -0.125,0 -0.15625,0.015625 0.546875,-0.96875 1.890625,-0.96875 1.953125,-0.96875 0.484375,0 1.40625,0.203125 1.40625,1.609375 0,0.28125 -0.03125,1.078125 -0.453125,1.703125 -0.4375,0.625 -0.921875,0.671875 -1.3125,0.6875 z m 0,0"
   id="path19" />
    </g>
  </g>
</g><path
     style="fill:#999999;fill-rule:evenodd;stroke:#0000ca;stroke-width:1.94106px;stroke-linecap:butt;stroke-linejoin:miter;stroke-dasharray:15.5285, 15.5285;stroke-dashoffset:0;stroke-opacity:0.711511"
     d="M 182.83021,626.68356 345.80614,343.33655"
     id="path22"
     inkscape:connector-type="polyline"
     inkscape:connector-curvature="0" /><path
     style="fill:none;fill-rule:evenodd;stroke:#0000ca;stroke-width:1.315;stroke-linecap:butt;stroke-linejoin:miter;stroke-dasharray:10.52, 10.52;stroke-dashoffset:0;stroke-opacity:0.71"
     d="m 316.29327,467.4549 306.54064,1.93809"
     id="path23"
     inkscape:connector-type="polyline"
     inkscape:connector-curvature="0" /><g
     inkscape:label=""
     transform="translate(192.5565,612.71082)"
     id="g28"><g
   fill="#000000"
   fill-opacity="1"
   id="g25"
   transform="matrix(1.33333,0,0,1.33333,-3.42817,-2.37283)">
    <g
   id="g24"
   transform="translate(1.993,10.889)">
      <path
   d="m 9.796875,-8.421875 c -0.671875,0.125 -0.921875,0.609375 -0.921875,1 0,0.5 0.40625,0.671875 0.6875,0.671875 0.625,0 1.0625,-0.546875 1.0625,-1.09375 0,-0.875 -1,-1.265625 -1.859375,-1.265625 -1.265625,0 -1.96875,1.234375 -2.15625,1.625 -0.46875,-1.546875 -1.75,-1.625 -2.125,-1.625 -2.109375,0 -3.21875,2.703125 -3.21875,3.15625 0,0.09375 0.078125,0.1875 0.21875,0.1875 0.171875,0 0.203125,-0.125 0.25,-0.203125 0.703125,-2.296875 2.09375,-2.734375 2.6875,-2.734375 0.921875,0 1.109375,0.875 1.109375,1.375 0,0.453125 -0.125,0.921875 -0.359375,1.921875 L 4.46875,-2.578125 c -0.3125,1.234375 -0.921875,2.375 -2.015625,2.375 -0.09375,0 -0.609375,0 -1.046875,-0.265625 C 2.140625,-0.625 2.3125,-1.234375 2.3125,-1.484375 2.3125,-1.90625 2,-2.140625 1.609375,-2.140625 c -0.5,0 -1.03125,0.421875 -1.03125,1.09375 0,0.859375 0.96875,1.25 1.859375,1.25 0.984375,0 1.6875,-0.78125 2.125,-1.625 0.328125,1.21875 1.359375,1.625 2.125,1.625 2.109375,0 3.234375,-2.703125 3.234375,-3.15625 0,-0.109375 -0.09375,-0.1875 -0.21875,-0.1875 -0.1875,0 -0.203125,0.109375 -0.265625,0.265625 -0.5625,1.828125 -1.75,2.671875 -2.6875,2.671875 -0.71875,0 -1.109375,-0.546875 -1.109375,-1.390625 0,-0.453125 0.078125,-0.78125 0.40625,-2.140625 l 0.734375,-2.8125 c 0.296875,-1.234375 1,-2.15625 1.953125,-2.15625 0.046875,0 0.625,0 1.0625,0.28125 z m 0,0"
   id="path24" />
    </g>
  </g>
  <g
   fill="#000000"
   fill-opacity="1"
   id="g27"
   transform="matrix(1.33333,0,0,1.33333,-3.42817,-2.37283)">
    <g
   id="g26"
   transform="translate(13.49,13.988)">
      <path
   d="M 6.3125,-2.40625 H 6 c -0.046875,0.234375 -0.15625,1.03125 -0.3125,1.265625 -0.09375,0.125 -0.90625,0.125 -1.34375,0.125 H 1.6875 c 0.390625,-0.328125 1.265625,-1.25 1.640625,-1.59375 2.1875,-2.015625 2.984375,-2.75 2.984375,-4.171875 0,-1.65625 -1.3125,-2.75 -2.96875,-2.75 -1.671875,0 -2.640625,1.40625 -2.640625,2.640625 0,0.734375 0.625,0.734375 0.671875,0.734375 0.296875,0 0.671875,-0.21875 0.671875,-0.671875 C 2.046875,-7.234375 1.78125,-7.5 1.375,-7.5 1.25,-7.5 1.21875,-7.5 1.171875,-7.484375 1.453125,-8.46875 2.21875,-9.125 3.15625,-9.125 4.375,-9.125 5.125,-8.109375 5.125,-6.78125 5.125,-5.5625 4.421875,-4.5 3.59375,-3.578125 L 0.703125,-0.34375 V 0 H 5.9375 Z m 0,0"
   id="path25" />
    </g>
  </g>
</g><g
     inkscape:label=""
     transform="translate(590.93884,473.91092)"
     id="g33"><g
   fill="#000000"
   fill-opacity="1"
   id="g30"
   transform="matrix(1.33333,0,0,1.33333,-3.42817,-2.37283)">
    <g
   id="g29"
   transform="translate(1.993,10.889)">
      <path
   d="m 9.796875,-8.421875 c -0.671875,0.125 -0.921875,0.609375 -0.921875,1 0,0.5 0.40625,0.671875 0.6875,0.671875 0.625,0 1.0625,-0.546875 1.0625,-1.09375 0,-0.875 -1,-1.265625 -1.859375,-1.265625 -1.265625,0 -1.96875,1.234375 -2.15625,1.625 -0.46875,-1.546875 -1.75,-1.625 -2.125,-1.625 -2.109375,0 -3.21875,2.703125 -3.21875,3.15625 0,0.09375 0.078125,0.1875 0.21875,0.1875 0.171875,0 0.203125,-0.125 0.25,-0.203125 0.703125,-2.296875 2.09375,-2.734375 2.6875,-2.734375 0.921875,0 1.109375,0.875 1.109375,1.375 0,0.453125 -0.125,0.921875 -0.359375,1.921875 L 4.46875,-2.578125 c -0.3125,1.234375 -0.921875,2.375 -2.015625,2.375 -0.09375,0 -0.609375,0 -1.046875,-0.265625 C 2.140625,-0.625 2.3125,-1.234375 2.3125,-1.484375 2.3125,-1.90625 2,-2.140625 1.609375,-2.140625 c -0.5,0 -1.03125,0.421875 -1.03125,1.09375 0,0.859375 0.96875,1.25 1.859375,1.25 0.984375,0 1.6875,-0.78125 2.125,-1.625 0.328125,1.21875 1.359375,1.625 2.125,1.625 2.109375,0 3.234375,-2.703125 3.234375,-3.15625 0,-0.109375 -0.09375,-0.1875 -0.21875,-0.1875 -0.1875,0 -0.203125,0.109375 -0.265625,0.265625 -0.5625,1.828125 -1.75,2.671875 -2.6875,2.671875 -0.71875,0 -1.109375,-0.546875 -1.109375,-1.390625 0,-0.453125 0.078125,-0.78125 0.40625,-2.140625 l 0.734375,-2.8125 c 0.296875,-1.234375 1,-2.15625 1.953125,-2.15625 0.046875,0 0.625,0 1.0625,0.28125 z m 0,0"
   id="path28" />
    </g>
  </g>
  <g
   fill="#000000"
   fill-opacity="1"
   id="g32"
   transform="matrix(1.33333,0,0,1.33333,-3.42817,-2.37283)">
    <g
   id="g31"
   transform="translate(13.49,13.988)">
      <path
   d="m 4.125,-9.1875 c 0,-0.34375 0,-0.34375 -0.28125,-0.34375 C 3.5,-9.15625 2.78125,-8.625 1.3125,-8.625 v 0.421875 c 0.328125,0 1.046875,0 1.828125,-0.375 v 7.46875 c 0,0.515625 -0.046875,0.6875 -1.296875,0.6875 H 1.390625 V 0 c 0.390625,-0.03125 1.78125,-0.03125 2.25,-0.03125 0.46875,0 1.859375,0 2.234375,0.03125 V -0.421875 H 5.4375 c -1.265625,0 -1.3125,-0.171875 -1.3125,-0.6875 z m 0,0"
   id="path30" />
    </g>
  </g>
</g><g
     inkscape:label=""
     transform="matrix(0.71195947,0,0,0.64015057,363.27178,388.92889)"
     id="g34"><g
   fill="#000000"
   fill-opacity="1"
   id="g2"
   transform="matrix(1.33333,0,0,1.33333,-3.96983,-2.0855)">
    <g
   id="use1"
   transform="translate(1.993,16.111)">
      <path
   d="m 15,-9.046875 c 0,-3.40625 -2.234375,-5.5 -5.125,-5.5 -4.421875,0 -8.890625,4.75 -8.890625,9.53125 0,3.234375 2.15625,5.453125 5.15625,5.453125 C 10.46875,0.4375 15,-4.09375 15,-9.046875 Z m -8.734375,9 c -1.703125,0 -3.5,-1.234375 -3.5,-4.453125 0,-1.875 0.6875,-4.953125 2.375,-7.03125 1.515625,-1.8125 3.25,-2.5625 4.625,-2.5625 1.828125,0 3.578125,1.328125 3.578125,4.296875 0,1.84375 -0.78125,4.71875 -2.171875,6.671875 -1.5,2.109375 -3.390625,3.078125 -4.90625,3.078125 z m 0,0"
   id="path33" />
    </g>
  </g>
</g><path
     style="opacity:0.79;fill:#ffffff;stroke:#000000;stroke-width:1.31451;stroke-miterlimit:5.2;stroke-dasharray:none;stroke-dashoffset:0;stroke-opacity:1;marker-end:url(#ConcaveTriangle);paint-order:stroke fill markers"
     d="m 401.7936,390.38623 c 1.50826,2.99419 3.01647,5.98829 5.01193,7.62562 1.99545,1.63732 4.47794,1.91771 6.53232,1.80296 2.05439,-0.11475 3.68053,-0.62462 5.32446,-1.54041 1.64394,-0.9158 3.30557,-2.23745 4.30759,-3.76132 1.00202,-1.52386 1.34438,-3.24984 1.19314,-4.68002 -0.15125,-1.43018 -0.79608,-2.56447 -1.44092,-3.69878"
     id="path37"
     inkscape:path-effect="#path-effect38"
     inkscape:original-d="m 401.7936,390.38623 c 1.50826,2.99419 3.01648,5.98829 4.52476,8.98254 2.48262,0.2804 4.96511,0.56079 7.44767,0.84118 1.62621,-0.50989 3.25235,-1.01976 4.87852,-1.52964 1.6617,-1.3217 3.32333,-2.64336 4.98499,-3.96504 0.34238,-1.72605 0.68474,-3.45203 1.02711,-5.17805 -0.64485,-1.13434 -1.28968,-2.26863 -1.93453,-3.40294"
     transform="matrix(1.0320916,0,0,0.98889515,-9.5968873,11.081723)"
     sodipodi:nodetypes="ccccccc" /><g
     inkscape:label=""
     transform="translate(433.49286,386.47565)"
     id="g42"><g
   fill="#000000"
   fill-opacity="1"
   id="g41"
   transform="matrix(1.33333,0,0,1.33333,-4.11567,-2.66883)">
    <g
   id="g40"
   transform="translate(1.993,16.111)">
      <path
   d="m 18.65625,-11.8125 c 0.46875,-0.8125 0.921875,-1.578125 2.171875,-1.703125 C 21,-13.53125 21.1875,-13.546875 21.1875,-13.875 c 0,-0.234375 -0.1875,-0.234375 -0.234375,-0.234375 -0.04687,0 -0.1875,0.04687 -1.5625,0.04687 -0.609375,0 -1.25,-0.04687 -1.859375,-0.04687 -0.125,0 -0.359375,0 -0.359375,0.390625 0,0.1875 0.15625,0.203125 0.28125,0.203125 0.421875,0.03125 1.078125,0.15625 1.078125,0.796875 0,0.265625 -0.07813,0.40625 -0.296875,0.765625 l -5.640625,9.859375 -0.734375,-10.75 c 0,-0.25 0.21875,-0.640625 1.375,-0.671875 0.28125,0 0.484375,0 0.484375,-0.390625 0,-0.203125 -0.203125,-0.203125 -0.3125,-0.203125 -0.71875,0 -1.484375,0.04687 -2.234375,0.04687 H 10.09375 c -0.296875,0 -0.671875,-0.04687 -0.984375,-0.04687 -0.125,0 -0.375,0 -0.375,0.390625 0,0.203125 0.140625,0.203125 0.5,0.203125 0.953125,0 0.953125,0.03125 1.03125,1.28125 l 0.0625,0.75 L 4.984375,-2.09375 4.21875,-12.75 c 0,-0.21875 0,-0.734375 1.40625,-0.765625 0.21875,0 0.453125,0 0.453125,-0.359375 0,-0.234375 -0.1875,-0.234375 -0.3125,-0.234375 -0.71875,0 -1.484375,0.04687 -2.234375,0.04687 H 2.453125 c -0.3125,0 -0.671875,-0.04687 -0.984375,-0.04687 -0.125,0 -0.375,0 -0.375,0.390625 0,0.203125 0.171875,0.203125 0.453125,0.203125 0.96875,0 1,0.125 1.03125,0.796875 l 0.90625,12.671875 C 3.515625,0.3125 3.53125,0.4375 3.78125,0.4375 c 0.203125,0 0.25,-0.09375 0.4375,-0.390625 L 10.375,-10.71875 11.140625,-0.046875 c 0.01563,0.359375 0.03125,0.484375 0.28125,0.484375 0.203125,0 0.265625,-0.109375 0.4375,-0.390625 z m 0,0"
   id="path40" />
    </g>
  </g>
</g><ellipse
     style="opacity:0.79;fill:#0000ff;stroke:#000000;stroke-width:2.8;stroke-miterlimit:5.2;paint-order:stroke fill markers"
     id="path9"
     cx="460.26901"
     cy="467.73999"
     rx="4.8597679"
     ry="4.3368325" /><g
     inkscape:label=""
     transform="translate(462.66969,474.94271)"
     id="g36"><g
   fill="#000000"
   fill-opacity="1"
   id="g35"
   transform="matrix(1.33333,0,0,1.33333,-3.78233,-2.66883)">
    <g
   id="g23"
   transform="translate(1.993,16.111)">
      <path
   d="m 7.59375,-12.578125 c 0.1875,-0.71875 0.234375,-0.9375 1.75,-0.9375 0.453125,0 0.609375,0 0.609375,-0.390625 0,-0.203125 -0.21875,-0.203125 -0.28125,-0.203125 -0.375,0 -0.828125,0.04687 -1.203125,0.04687 H 5.921875 c -0.40625,0 -0.875,-0.04687 -1.296875,-0.04687 -0.15625,0 -0.390625,0 -0.390625,0.390625 0,0.203125 0.171875,0.203125 0.578125,0.203125 1.28125,0 1.28125,0.171875 1.28125,0.40625 0,0.140625 -0.046875,0.265625 -0.078125,0.453125 L 3.21875,-1.53125 C 3.03125,-0.8125 3,-0.59375 1.484375,-0.59375 c -0.453125,0 -0.640625,0 -0.640625,0.390625 C 0.84375,0 1.046875,0 1.15625,0 c 0.375,0 0.828125,-0.046875 1.203125,-0.046875 h 2.53125 C 5.3125,-0.046875 5.765625,0 6.171875,0 6.34375,0 6.59375,0 6.59375,-0.375 c 0,-0.21875 -0.125,-0.21875 -0.578125,-0.21875 -1.28125,0 -1.28125,-0.171875 -1.28125,-0.421875 0,-0.03125 0,-0.140625 0.078125,-0.46875 z m 0,0"
   id="path10" />
    </g>
  </g>
</g><path
     style="fill:none;fill-rule:evenodd;stroke:#000000;stroke-width:1px;stroke-linecap:butt;stroke-linejoin:miter;stroke-opacity:0.42896262;stroke-dasharray:8, 8;stroke-dashoffset:0"
     d="M 371.75027,415.18587 544.64069,515.73459"
     id="path36"
     inkscape:connector-type="polyline"
     inkscape:connector-curvature="0"
     inkscape:connection-end="#path2-7-2-1" /><path
     style="fill:none;fill-rule:evenodd;stroke:#000000;stroke-width:1px;stroke-linecap:butt;stroke-linejoin:miter;stroke-opacity:0.42799613;stroke-dasharray:8, 8;stroke-dashoffset:0"
     d="M 374.52934,516.27284 545.04393,417.24926"
     id="path38"
     inkscape:connector-type="polyline"
     inkscape:connector-curvature="0"
     inkscape:connection-start="#path2-7-2-7"
     inkscape:connection-end="#path2-2" /><path
     style="fill:#999999;fill-rule:evenodd;stroke:#000000;stroke-width:1px;stroke-linecap:butt;stroke-linejoin:miter;stroke-opacity:0.42433152;stroke-dasharray:8, 8;stroke-dashoffset:0"
     d="m 459.73056,368.41469 0.0161,196.45224"
     id="path39"
     inkscape:connector-type="polyline"
     inkscape:connector-curvature="0"
     inkscape:connection-start="#path2-7-2-45-7"
     inkscape:connection-end="#path2-8" /></g></svg>
