<?xml version="1.0" encoding="UTF-8" standalone="no"?>
<!-- Generator: Adobe Illustrator 28.2.0, SVG Export Plug-In . SVG Version: 6.00 Build 0)  -->

<svg
   version="1.1"
   id="Layer_1"
   x="0px"
   y="0px"
   viewBox="0 0 1366 768"
   style="enable-background:new 0 0 1366 768;"
   xml:space="preserve"
   sodipodi:docname="twofold1.svg"
   inkscape:version="1.2.2 (b0a8486541, 2022-12-01)"
   xmlns:inkscape="http://www.inkscape.org/namespaces/inkscape"
   xmlns:sodipodi="http://sodipodi.sourceforge.net/DTD/sodipodi-0.dtd"
   xmlns:xlink="http://www.w3.org/1999/xlink"
   xmlns="http://www.w3.org/2000/svg"
   xmlns:svg="http://www.w3.org/2000/svg"
   xmlns:ns8="http://www.iki.fi/pav/software/textext/"><defs
   id="defs5"><pattern
     inkscape:collect="always"
     xlink:href="#Hexagons"
     id="pattern2335"
     patternTransform="matrix(1.4306234,0,0,1.2969473,-888.38394,-498.13895)" /><pattern
     inkscape:collect="always"
     xlink:href="#pattern2264"
     id="pattern2278"
     patternTransform="translate(-4.21875e-6)" /><pattern
     inkscape:collect="always"
     xlink:href="#Hexagons"
     id="pattern2267"
     patternTransform="matrix(0.5,0,0,0.5,-208.75732,-132.76987)" /><pattern
     inkscape:collect="always"
     xlink:href="#Hexagons"
     preserveAspectRatio="xMidYMid"
     id="pattern2"
     patternTransform="matrix(3.666,0,0,3.666,-112.30792,-149.59084)"
     x="0"
     y="11" /><pattern
     patternUnits="userSpaceOnUse"
     width="100"
     height="87"
     preserveAspectRatio="xMidYMid"
     patternTransform="translate(1,1) scale(0.5,0.5)"
     style="fill:#aaaaaa"
     id="Hexagons"
     inkscape:label="Hexagons packing grid"
     inkscape:collect="always"
     inkscape:isstock="true"><path
       id="path27"
       style="stroke:none"
       d="M 23.246093,0 0,13.382812 V 44.689453 L 0.0839844,44.640625 24.033203,58.505859 24.001953,86.332031 22.841796,87 h 4.478516 L 26.068359,86.275391 26.099609,58.449219 50.083984,44.640625 74.033203,58.505859 74.001953,86.332031 72.841796,87 h 4.478516 L 76.068359,86.275391 76.099609,58.449219 100,44.689453 V 13.365234 L 76.919921,0 H 73.246093 L 50.015625,13.373047 26.919921,0 Z M 25.083984,1.25 49.033203,15.115234 49.001953,42.941406 25.017578,56.75 1.0019531,42.845703 l 0.033203,-27.75 z m 50,0 24.017576,13.904297 -0.0352,27.75 L 75.017578,56.75 51.068359,42.884766 51.099609,15.058594 Z" /></pattern><pattern
     patternUnits="userSpaceOnUse"
     width="642.96096"
     height="499.62084"
     patternTransform="translate(153.46512,60.231423)"
     id="pattern598"><rect
       style="opacity:0.79;fill:url(#pattern2);fill-opacity:1;stroke:#000000;stroke-width:1.98049;stroke-miterlimit:5.2;paint-order:stroke fill markers"
       id="rect1"
       width="640.98047"
       height="497.64035"
       x="0.99024498"
       y="0.99024498" /></pattern><pattern
     patternUnits="userSpaceOnUse"
     width="437.04602"
     height="359.56067"
     patternTransform="translate(209.75732,133.76987)"
     id="pattern2264"><rect
       style="mix-blend-mode:normal;fill:url(#pattern2267);fill-opacity:1"
       id="rect605"
       width="437.04602"
       height="359.56067"
       x="0"
       y="0" /></pattern><pattern
     patternUnits="userSpaceOnUse"
     width="437.04602"
     height="359.56067"
     patternTransform="translate(209.75732,133.76987)"
     id="pattern2275"><rect
       style="fill:url(#pattern2278);stroke:none"
       width="437.04602"
       height="359.56067"
       x="0"
       y="0"
       id="rect2269"
       inkscape:transform-center-x="-100.51674"
       inkscape:transform-center-y="19.67364" /></pattern></defs><sodipodi:namedview
   id="namedview3"
   pagecolor="#ffffff"
   bordercolor="#000000"
   borderopacity="0.25"
   inkscape:showpageshadow="2"
   inkscape:pageopacity="0.0"
   inkscape:pagecheckerboard="0"
   inkscape:deskcolor="#d1d1d1"
   showgrid="false"
   inkscape:zoom="5.2812038"
   inkscape:cx="380.50037"
   inkscape:cy="197.6822"
   inkscape:window-width="1920"
   inkscape:window-height="998"
   inkscape:window-x="0"
   inkscape:window-y="0"
   inkscape:window-maximized="1"
   inkscape:current-layer="Layer_1" />
<g
   id="g3262"><rect
     style="opacity:1;fill:url(#pattern2335);fill-opacity:1;stroke:none;stroke-width:1.41973"
     width="176.51247"
     height="165.41653"
     x="277.69623"
     y="134.1259"
     id="rect2280"
     transform="matrix(0.99999426,0.00338836,0,1,0,0)"
     ry="0" /><ellipse
     style="opacity:0.79;fill:#333333;fill-opacity:1;stroke:#000000;stroke-width:0.0318844;stroke-miterlimit:5.2;stroke-dasharray:none;paint-order:stroke fill markers"
     id="path2-7-2-3"
     cx="435.56433"
     cy="180.29027"
     rx="3.4840577"
     ry="3.4840579" /><ellipse
     style="opacity:0.79;fill:#333333;fill-opacity:1;stroke:#000000;stroke-width:0.0318844;stroke-miterlimit:5.2;stroke-dasharray:none;paint-order:stroke fill markers"
     id="path2-7-2-6"
     cx="399.24646"
     cy="236.52907"
     rx="3.4840577"
     ry="3.4840579" /><ellipse
     style="opacity:0.79;fill:#333333;fill-opacity:1;stroke:#000000;stroke-width:0.0318844;stroke-miterlimit:5.2;stroke-dasharray:none;paint-order:stroke fill markers"
     id="path2-7-2-06"
     cx="327.53394"
     cy="235.89963"
     rx="3.4840577"
     ry="3.4840579" /><path
     style="fill:none;fill-rule:evenodd;stroke:#333dae;stroke-width:0.5;stroke-linecap:butt;stroke-linejoin:miter;stroke-dasharray:3, 1;stroke-dashoffset:0;stroke-opacity:1"
     d="m 301.60764,217.98006 129.06904,-0.66422"
     id="path2550"
     inkscape:connector-type="polyline"
     inkscape:connector-curvature="0" /><path
     style="fill:#0000ff;fill-rule:evenodd;stroke:#3c36ac;stroke-width:0.5;stroke-linecap:butt;stroke-linejoin:miter;stroke-dasharray:3, 1;stroke-dashoffset:0;stroke-opacity:1"
     d="m 334.65067,261.99253 62.10042,-95.97385"
     id="path2552"
     inkscape:connector-type="polyline"
     inkscape:connector-curvature="0" /><path
     style="fill:none;fill-rule:evenodd;stroke:#433fc4;stroke-width:0.5;stroke-linecap:butt;stroke-linejoin:miter;stroke-dasharray:3, 1;stroke-dashoffset:0;stroke-opacity:1"
     d="m 333.95661,162.64021 56.9456,106.29497"
     id="path2554"
     inkscape:connector-type="polyline"
     inkscape:connector-curvature="0" /><path
     style="fill:none;fill-rule:evenodd;stroke:#c53838;stroke-width:0.5;stroke-linecap:butt;stroke-linejoin:miter;stroke-dasharray:3, 1;stroke-dashoffset:0;stroke-opacity:1"
     d="m 363.45693,157.88891 0.11088,122.33473"
     id="path2556"
     inkscape:connector-type="polyline"
     inkscape:connector-curvature="0" /><path
     style="fill:none;fill-rule:evenodd;stroke:#cf4c4c;stroke-width:0.5;stroke-linecap:butt;stroke-linejoin:miter;stroke-dasharray:3, 1;stroke-dashoffset:0;stroke-opacity:1"
     d="m 307.70298,188.45926 106.95073,56.04695"
     id="path2558"
     inkscape:connector-type="polyline"
     inkscape:connector-curvature="0" /><path
     style="fill:none;fill-rule:evenodd;stroke:#c33535;stroke-width:0.5;stroke-linecap:butt;stroke-linejoin:miter;stroke-dasharray:3, 1;stroke-dashoffset:0;stroke-opacity:1"
     d="M 308.29428,246.8153 418.75279,189.27466"
     id="path2560"
     inkscape:connector-type="polyline"
     inkscape:connector-curvature="0" /><ellipse
     style="opacity:0.79;fill:#333333;fill-opacity:1;stroke:#000000;stroke-width:0.0318844;stroke-miterlimit:5.2;stroke-dasharray:none;paint-order:stroke fill markers"
     id="path2-7-2"
     cx="363.43411"
     cy="180.21968"
     rx="3.4840577"
     ry="3.4840579" /><ellipse
     style="opacity:0.79;fill:#333333;fill-opacity:1;stroke:#000000;stroke-width:0.0318844;stroke-miterlimit:5.2;stroke-dasharray:none;paint-order:stroke fill markers"
     id="path2-7-2-2"
     cx="292.57529"
     cy="180.20503"
     rx="3.4840577"
     ry="3.4840579" /><ellipse
     style="opacity:0.79;fill:#333333;fill-opacity:1;stroke:#000000;stroke-width:0.0318844;stroke-miterlimit:5.2;stroke-dasharray:none;paint-order:stroke fill markers"
     id="path2-7-2-7"
     cx="292.31012"
     cy="293.22177"
     rx="3.4840577"
     ry="3.4840579" /><ellipse
     style="opacity:0.79;fill:#333333;fill-opacity:1;stroke:#000000;stroke-width:0.0318844;stroke-miterlimit:5.2;stroke-dasharray:none;paint-order:stroke fill markers"
     id="path2-7-2-0"
     cx="364.03818"
     cy="292.99423"
     rx="3.4840577"
     ry="3.4840579" /><ellipse
     style="opacity:0.79;fill:#b30000;fill-opacity:1;stroke:#000000;stroke-width:0.0318844;stroke-miterlimit:5.2;stroke-dasharray:none;paint-order:stroke fill markers"
     id="path2-5"
     cx="328.1004"
     cy="199.1339"
     rx="3.4840577"
     ry="3.4840579" /><ellipse
     style="opacity:0.79;fill:#b30000;fill-opacity:1;stroke:#000000;stroke-width:0.0318844;stroke-miterlimit:5.2;stroke-dasharray:none;paint-order:stroke fill markers"
     id="path2-5-3"
     cx="363.90271"
     cy="255.29289"
     rx="3.4840577"
     ry="3.4840579" /><ellipse
     style="opacity:0.79;fill:#b30000;fill-opacity:1;stroke:#000000;stroke-width:0.0318844;stroke-miterlimit:5.2;stroke-dasharray:none;paint-order:stroke fill markers"
     id="path2-5-6"
     cx="399.67627"
     cy="199.38547"
     rx="3.4840577"
     ry="3.4840579" /><ellipse
     style="opacity:0.79;fill:#b30000;fill-opacity:1;stroke:#000000;stroke-width:0.0318844;stroke-miterlimit:5.2;stroke-dasharray:none;paint-order:stroke fill markers"
     id="path2-5-7"
     cx="292.3703"
     cy="142.23746"
     rx="3.4840577"
     ry="3.4840579" /><ellipse
     style="opacity:0.79;fill:#b30000;fill-opacity:1;stroke:#000000;stroke-width:0.0318844;stroke-miterlimit:5.2;stroke-dasharray:none;paint-order:stroke fill markers"
     id="path2-5-5"
     cx="292.21863"
     cy="254.9545"
     rx="3.4840577"
     ry="3.4840579" /><ellipse
     style="opacity:0.79;fill:#b30000;fill-opacity:1;stroke:#000000;stroke-width:0.0318844;stroke-miterlimit:5.2;stroke-dasharray:none;paint-order:stroke fill markers"
     id="path2-5-35"
     cx="435.48013"
     cy="255.71286"
     rx="3.4840577"
     ry="3.4840579" /><ellipse
     style="opacity:0.79;fill:#333333;fill-opacity:1;stroke:#000000;stroke-width:0.0318844;stroke-miterlimit:5.2;stroke-dasharray:none;paint-order:stroke fill markers"
     id="path2-7-2-9"
     cx="435.59674"
     cy="293.71759"
     rx="3.4840577"
     ry="3.4840579" /><ellipse
     style="opacity:0.79;fill:#b30000;fill-opacity:1;stroke:#000000;stroke-width:0.0318844;stroke-miterlimit:5.2;stroke-dasharray:none;paint-order:stroke fill markers"
     id="path2-5-62"
     cx="435.01151"
     cy="142.42365"
     rx="3.4840577"
     ry="3.4840579" /><ellipse
     style="opacity:0.79;fill:#b30000;fill-opacity:1;stroke:#000000;stroke-width:0.0318844;stroke-miterlimit:5.2;stroke-dasharray:none;paint-order:stroke fill markers"
     id="path2-5-9"
     cx="363.92465"
     cy="142.39957"
     rx="3.4840577"
     ry="3.4840579" /></g><g
   transform="matrix(0.70604645,0,0,0.80058971,432.4678,214.69579)"
   ns8:version="1.8.2"
   ns8:texconverter="pdflatex"
   ns8:pdfconverter="inkscape"
   ns8:text="$s_1$"
   ns8:preamble="/usr/share/inkscape/extensions/textext/default_packages.tex"
   ns8:scale="0.41711582563982524"
   ns8:alignment="middle center"
   ns8:stroke-to-path="0"
   ns8:inkscapeversion="1.2.2"
   ns8:jacobian_sqrt="0.5561534119602253"
   id="g7270"><defs
   id="id-1e97e7b1-dfe5-4ace-8a38-93a35599d4e2">
    <g
   id="id-6f89f504-1467-4b2d-bbb2-682b7a3aa6d7">
      <symbol
   overflow="visible"
   id="id-c0b29604-3cf7-4e17-bc8d-728431676916">
        <path
   style="stroke:none"
   d=""
   id="id-cc40fa2c-8c23-4fc5-86bc-c6ae60162ac1" />
      </symbol>
      <symbol
   overflow="visible"
   id="id-dc301c80-2db4-4a7d-817e-8146f3f6c640">
        <path
   style="stroke:none"
   d="M 3.890625,-3.734375 C 3.625,-3.71875 3.421875,-3.5 3.421875,-3.28125 c 0,0.140625 0.09375,0.296875 0.3125,0.296875 0.21875,0 0.453125,-0.171875 0.453125,-0.5625 C 4.1875,-4 3.765625,-4.40625 3,-4.40625 c -1.3125,0 -1.6875,1.015625 -1.6875,1.453125 0,0.78125 0.734375,0.921875 1.03125,0.984375 0.515625,0.109375 1.03125,0.21875 1.03125,0.765625 0,0.25 -0.21875,1.09375 -1.421875,1.09375 -0.140625,0 -0.90625,0 -1.140625,-0.53125 0.390625,0.046875 0.640625,-0.25 0.640625,-0.53125 0,-0.21875 -0.171875,-0.34375 -0.375,-0.34375 -0.265625,0 -0.5625,0.203125 -0.5625,0.65625 0,0.5625 0.578125,0.96875 1.421875,0.96875 1.625,0 2.015625,-1.203125 2.015625,-1.65625 0,-0.359375 -0.1875,-0.609375 -0.3125,-0.71875 -0.265625,-0.28125 -0.5625,-0.34375 -1,-0.421875 -0.359375,-0.078125 -0.75,-0.15625 -0.75,-0.609375 C 1.890625,-3.578125 2.125,-4.1875 3,-4.1875 c 0.25,0 0.75,0.078125 0.890625,0.453125 z m 0,0"
   id="id-6c33e6d5-7348-421b-b933-3e451bdab812" />
      </symbol>
      <symbol
   overflow="visible"
   id="id-8acd9e41-811c-445d-91eb-8c94b8a32446">
        <path
   style="stroke:none"
   d=""
   id="id-63def38e-41fe-4421-a48d-5f13892fcd8f" />
      </symbol>
      <symbol
   overflow="visible"
   id="id-74dfad64-2af0-45b7-b9cf-98be7084eb6e">
        <path
   style="stroke:none"
   d="m 2.328125,-4.4375 c 0,-0.1875 0,-0.1875 -0.203125,-0.1875 -0.453125,0.4375 -1.078125,0.4375 -1.359375,0.4375 v 0.25 c 0.15625,0 0.625,0 1,-0.1875 v 3.546875 c 0,0.234375 0,0.328125 -0.6875,0.328125 H 0.8125 V 0 c 0.125,0 0.984375,-0.03125 1.234375,-0.03125 0.21875,0 1.09375,0.03125 1.25,0.03125 V -0.25 H 3.03125 c -0.703125,0 -0.703125,-0.09375 -0.703125,-0.328125 z m 0,0"
   id="id-834a612b-8302-417b-84c4-98f5a5786573" />
      </symbol>
    </g>
  </defs>
  <g
   id="id-58951415-b5a6-495b-86d4-c81c9407ea5d"
   transform="translate(-149.228,-130.359)">
    <g
   style="fill:#000000;fill-opacity:1"
   id="id-09bc7a37-cf61-4534-b8dd-1d81c17ebd57">
      <g
   transform="translate(148.712,134.765)"
   id="g1640"><path
   style="stroke:none"
   d="M 3.890625,-3.734375 C 3.625,-3.71875 3.421875,-3.5 3.421875,-3.28125 c 0,0.140625 0.09375,0.296875 0.3125,0.296875 0.21875,0 0.453125,-0.171875 0.453125,-0.5625 C 4.1875,-4 3.765625,-4.40625 3,-4.40625 c -1.3125,0 -1.6875,1.015625 -1.6875,1.453125 0,0.78125 0.734375,0.921875 1.03125,0.984375 0.515625,0.109375 1.03125,0.21875 1.03125,0.765625 0,0.25 -0.21875,1.09375 -1.421875,1.09375 -0.140625,0 -0.90625,0 -1.140625,-0.53125 0.390625,0.046875 0.640625,-0.25 0.640625,-0.53125 0,-0.21875 -0.171875,-0.34375 -0.375,-0.34375 -0.265625,0 -0.5625,0.203125 -0.5625,0.65625 0,0.5625 0.578125,0.96875 1.421875,0.96875 1.625,0 2.015625,-1.203125 2.015625,-1.65625 0,-0.359375 -0.1875,-0.609375 -0.3125,-0.71875 -0.265625,-0.28125 -0.5625,-0.34375 -1,-0.421875 -0.359375,-0.078125 -0.75,-0.15625 -0.75,-0.609375 C 1.890625,-3.578125 2.125,-4.1875 3,-4.1875 c 0.25,0 0.75,0.078125 0.890625,0.453125 z m 0,0"
   id="id-af839eba-c5d8-4a30-9fd4-b762abc47209" />
      </g></g>
    <g
   style="fill:#000000;fill-opacity:1"
   id="id-ae45b5aa-2a27-468b-82e2-2956dc3fb83f">
      <g
   transform="translate(153.382,136.259)"
   id="g1644"><path
   style="stroke:none"
   d="m 2.328125,-4.4375 c 0,-0.1875 0,-0.1875 -0.203125,-0.1875 -0.453125,0.4375 -1.078125,0.4375 -1.359375,0.4375 v 0.25 c 0.15625,0 0.625,0 1,-0.1875 v 3.546875 c 0,0.234375 0,0.328125 -0.6875,0.328125 H 0.8125 V 0 c 0.125,0 0.984375,-0.03125 1.234375,-0.03125 0.21875,0 1.09375,0.03125 1.25,0.03125 V -0.25 H 3.03125 c -0.703125,0 -0.703125,-0.09375 -0.703125,-0.328125 z m 0,0"
   id="id-0a68be57-8692-4536-af5f-ca7cc90e546d" />
      </g></g>
  </g>
</g><g
   transform="matrix(0.74078613,0,0,0.81799885,420.46069,189.97305)"
   ns8:version="1.8.2"
   ns8:texconverter="pdflatex"
   ns8:pdfconverter="inkscape"
   ns8:text="$s_2$"
   ns8:preamble="/usr/share/inkscape/extensions/textext/default_packages.tex"
   ns8:scale="0.4323627636523064"
   ns8:alignment="middle center"
   ns8:stroke-to-path="0"
   ns8:inkscapeversion="1.2.2"
   ns8:jacobian_sqrt="0.5764822416198092"
   id="g9308"><defs
   id="id-29f78325-a1e3-45a7-877f-aa23fc268b54">
    <g
   id="id-2911bfd0-230f-4cc6-a539-953d6e62be89">
      <symbol
   overflow="visible"
   id="id-c00318b0-9a24-4cfa-b5ff-47f7be30ab07">
        <path
   style="stroke:none"
   d=""
   id="id-3aef0c76-d96e-4772-a318-8d1619f9f033" />
      </symbol>
      <symbol
   overflow="visible"
   id="id-2159c4c6-759d-4fff-9475-9936273fdb4b">
        <path
   style="stroke:none"
   d="M 3.890625,-3.734375 C 3.625,-3.71875 3.421875,-3.5 3.421875,-3.28125 c 0,0.140625 0.09375,0.296875 0.3125,0.296875 0.21875,0 0.453125,-0.171875 0.453125,-0.5625 C 4.1875,-4 3.765625,-4.40625 3,-4.40625 c -1.3125,0 -1.6875,1.015625 -1.6875,1.453125 0,0.78125 0.734375,0.921875 1.03125,0.984375 0.515625,0.109375 1.03125,0.21875 1.03125,0.765625 0,0.25 -0.21875,1.09375 -1.421875,1.09375 -0.140625,0 -0.90625,0 -1.140625,-0.53125 0.390625,0.046875 0.640625,-0.25 0.640625,-0.53125 0,-0.21875 -0.171875,-0.34375 -0.375,-0.34375 -0.265625,0 -0.5625,0.203125 -0.5625,0.65625 0,0.5625 0.578125,0.96875 1.421875,0.96875 1.625,0 2.015625,-1.203125 2.015625,-1.65625 0,-0.359375 -0.1875,-0.609375 -0.3125,-0.71875 -0.265625,-0.28125 -0.5625,-0.34375 -1,-0.421875 -0.359375,-0.078125 -0.75,-0.15625 -0.75,-0.609375 C 1.890625,-3.578125 2.125,-4.1875 3,-4.1875 c 0.25,0 0.75,0.078125 0.890625,0.453125 z m 0,0"
   id="id-375644d5-d312-4975-b894-ba0e6a92adda" />
      </symbol>
      <symbol
   overflow="visible"
   id="id-054e7097-905a-463b-b718-bf92ba6237e5">
        <path
   style="stroke:none"
   d=""
   id="id-1bcbc277-86c0-47e4-a6e4-ec85642c347d" />
      </symbol>
      <symbol
   overflow="visible"
   id="id-56d925e0-d084-4fb4-8719-def316c2aab3">
        <path
   style="stroke:none"
   d="M 3.515625,-1.265625 H 3.28125 c -0.015625,0.15625 -0.09375,0.5625 -0.1875,0.625 C 3.046875,-0.59375 2.515625,-0.59375 2.40625,-0.59375 H 1.125 c 0.734375,-0.640625 0.984375,-0.84375 1.390625,-1.171875 0.515625,-0.40625 1,-0.84375 1,-1.5 0,-0.84375 -0.734375,-1.359375 -1.625,-1.359375 -0.859375,0 -1.453125,0.609375 -1.453125,1.25 0,0.34375 0.296875,0.390625 0.375,0.390625 0.15625,0 0.359375,-0.125 0.359375,-0.375 0,-0.125 -0.046875,-0.375 -0.40625,-0.375 C 0.984375,-4.21875 1.453125,-4.375 1.78125,-4.375 c 0.703125,0 1.0625,0.546875 1.0625,1.109375 0,0.609375 -0.4375,1.078125 -0.65625,1.328125 L 0.515625,-0.265625 C 0.4375,-0.203125 0.4375,-0.1875 0.4375,0 h 2.875 z m 0,0"
   id="id-c137b0b5-d76d-4d90-be53-6b8836c9b3dd" />
      </symbol>
    </g>
  </defs>
  <g
   id="id-16a5c7d2-fee2-4d18-b8aa-4de2a5242ec9"
   transform="translate(-149.228,-130.359)">
    <g
   style="fill:#000000;fill-opacity:1"
   id="id-e216bed2-0257-43f6-8416-d79e0d100008">
      <g
   transform="translate(148.712,134.765)"
   id="g2146"><path
   style="stroke:none"
   d="M 3.890625,-3.734375 C 3.625,-3.71875 3.421875,-3.5 3.421875,-3.28125 c 0,0.140625 0.09375,0.296875 0.3125,0.296875 0.21875,0 0.453125,-0.171875 0.453125,-0.5625 C 4.1875,-4 3.765625,-4.40625 3,-4.40625 c -1.3125,0 -1.6875,1.015625 -1.6875,1.453125 0,0.78125 0.734375,0.921875 1.03125,0.984375 0.515625,0.109375 1.03125,0.21875 1.03125,0.765625 0,0.25 -0.21875,1.09375 -1.421875,1.09375 -0.140625,0 -0.90625,0 -1.140625,-0.53125 0.390625,0.046875 0.640625,-0.25 0.640625,-0.53125 0,-0.21875 -0.171875,-0.34375 -0.375,-0.34375 -0.265625,0 -0.5625,0.203125 -0.5625,0.65625 0,0.5625 0.578125,0.96875 1.421875,0.96875 1.625,0 2.015625,-1.203125 2.015625,-1.65625 0,-0.359375 -0.1875,-0.609375 -0.3125,-0.71875 -0.265625,-0.28125 -0.5625,-0.34375 -1,-0.421875 -0.359375,-0.078125 -0.75,-0.15625 -0.75,-0.609375 C 1.890625,-3.578125 2.125,-4.1875 3,-4.1875 c 0.25,0 0.75,0.078125 0.890625,0.453125 z m 0,0"
   id="id-84ba3be6-cf4f-438c-bb82-f4f93197a93c" />
      </g></g>
    <g
   style="fill:#000000;fill-opacity:1"
   id="id-78d83b4e-b45e-44ba-89c8-30027a2fba9a">
      <g
   transform="translate(153.382,136.259)"
   id="g2150"><path
   style="stroke:none"
   d="M 3.515625,-1.265625 H 3.28125 c -0.015625,0.15625 -0.09375,0.5625 -0.1875,0.625 C 3.046875,-0.59375 2.515625,-0.59375 2.40625,-0.59375 H 1.125 c 0.734375,-0.640625 0.984375,-0.84375 1.390625,-1.171875 0.515625,-0.40625 1,-0.84375 1,-1.5 0,-0.84375 -0.734375,-1.359375 -1.625,-1.359375 -0.859375,0 -1.453125,0.609375 -1.453125,1.25 0,0.34375 0.296875,0.390625 0.375,0.390625 0.15625,0 0.359375,-0.125 0.359375,-0.375 0,-0.125 -0.046875,-0.375 -0.40625,-0.375 C 0.984375,-4.21875 1.453125,-4.375 1.78125,-4.375 c 0.703125,0 1.0625,0.546875 1.0625,1.109375 0,0.609375 -0.4375,1.078125 -0.65625,1.328125 L 0.515625,-0.265625 C 0.4375,-0.203125 0.4375,-0.1875 0.4375,0 h 2.875 z m 0,0"
   id="id-da47b4f4-8618-42d8-8cd4-9e90e0ddf7ef" />
      </g></g>
  </g>
</g><g
   transform="matrix(0.73043719,0,0,0.91319588,397.55502,159.61463)"
   ns8:version="1.8.2"
   ns8:texconverter="pdflatex"
   ns8:pdfconverter="inkscape"
   ns8:text="$s_3$"
   ns8:preamble="/usr/share/inkscape/extensions/textext/default_packages.tex"
   ns8:scale="0.4262119387241282"
   ns8:alignment="middle center"
   ns8:stroke-to-path="0"
   ns8:inkscapeversion="1.2.2"
   ns8:jacobian_sqrt="0.5682808134522932"
   id="g5436"><defs
   id="id-d4367f6e-de35-4afa-9749-f9e28a0e1bea">
    <g
   id="id-30dfc8bc-87b4-44ea-b8d3-f94eb83d31cc">
      <symbol
   overflow="visible"
   id="id-caac82d9-5dfa-4d44-88f1-92e7301113a2">
        <path
   style="stroke:none"
   d=""
   id="id-7a1dfd3e-1ea5-4acd-8855-b2badcf4f1ed" />
      </symbol>
      <symbol
   overflow="visible"
   id="id-71e1c49d-68f0-4224-848e-3ec66043d7f1">
        <path
   style="stroke:none"
   d="M 3.890625,-3.734375 C 3.625,-3.71875 3.421875,-3.5 3.421875,-3.28125 c 0,0.140625 0.09375,0.296875 0.3125,0.296875 0.21875,0 0.453125,-0.171875 0.453125,-0.5625 C 4.1875,-4 3.765625,-4.40625 3,-4.40625 c -1.3125,0 -1.6875,1.015625 -1.6875,1.453125 0,0.78125 0.734375,0.921875 1.03125,0.984375 0.515625,0.109375 1.03125,0.21875 1.03125,0.765625 0,0.25 -0.21875,1.09375 -1.421875,1.09375 -0.140625,0 -0.90625,0 -1.140625,-0.53125 0.390625,0.046875 0.640625,-0.25 0.640625,-0.53125 0,-0.21875 -0.171875,-0.34375 -0.375,-0.34375 -0.265625,0 -0.5625,0.203125 -0.5625,0.65625 0,0.5625 0.578125,0.96875 1.421875,0.96875 1.625,0 2.015625,-1.203125 2.015625,-1.65625 0,-0.359375 -0.1875,-0.609375 -0.3125,-0.71875 -0.265625,-0.28125 -0.5625,-0.34375 -1,-0.421875 -0.359375,-0.078125 -0.75,-0.15625 -0.75,-0.609375 C 1.890625,-3.578125 2.125,-4.1875 3,-4.1875 c 0.25,0 0.75,0.078125 0.890625,0.453125 z m 0,0"
   id="id-2133b7ae-5345-459f-b8ec-5d7e8a6b84a8" />
      </symbol>
      <symbol
   overflow="visible"
   id="id-79108be4-1394-41cf-97c6-3682a5660be2">
        <path
   style="stroke:none"
   d=""
   id="id-c03159ad-6f2e-4df9-8928-725f229b4f8a" />
      </symbol>
      <symbol
   overflow="visible"
   id="id-2918ac1c-98cd-4eb8-a0af-9e939d692abf">
        <path
   style="stroke:none"
   d="m 1.90625,-2.328125 c 0.546875,0 0.9375,0.375 0.9375,1.125 0,0.859375 -0.515625,1.125 -0.90625,1.125 -0.28125,0 -0.90625,-0.078125 -1.1875,-0.5 0.328125,0 0.40625,-0.234375 0.40625,-0.390625 0,-0.21875 -0.171875,-0.375 -0.390625,-0.375 -0.1875,0 -0.390625,0.125 -0.390625,0.40625 0,0.65625 0.71875,1.078125 1.5625,1.078125 0.96875,0 1.640625,-0.65625 1.640625,-1.34375 0,-0.546875 -0.4375,-1.09375 -1.203125,-1.25 0.71875,-0.265625 0.984375,-0.78125 0.984375,-1.21875 0,-0.546875 -0.625,-0.953125 -1.40625,-0.953125 -0.765625,0 -1.359375,0.375 -1.359375,0.9375 0,0.234375 0.15625,0.359375 0.359375,0.359375 0.21875,0 0.359375,-0.15625 0.359375,-0.34375 0,-0.203125 -0.140625,-0.359375 -0.359375,-0.375 0.25,-0.296875 0.71875,-0.375 0.984375,-0.375 0.3125,0 0.75,0.15625 0.75,0.75 0,0.296875 -0.09375,0.625 -0.28125,0.828125 -0.21875,0.265625 -0.421875,0.28125 -0.765625,0.3125 -0.171875,0.015625 -0.1875,0.015625 -0.21875,0.015625 -0.015625,0 -0.078125,0.015625 -0.078125,0.09375 0,0.09375 0.0625,0.09375 0.1875,0.09375 z m 0,0"
   id="id-a4f8d5d0-53e3-4233-8d41-fcad5cec5872" />
      </symbol>
    </g>
  </defs>
  <g
   id="id-c09b3781-2bde-4bed-869e-ba9d011dc061"
   transform="translate(-149.228,-130.359)">
    <g
   style="fill:#000000;fill-opacity:1"
   id="id-48874bea-f604-487d-8fde-d8f964e4a83b">
      <g
   transform="translate(148.712,134.765)"
   id="g2608"><path
   style="stroke:none"
   d="M 3.890625,-3.734375 C 3.625,-3.71875 3.421875,-3.5 3.421875,-3.28125 c 0,0.140625 0.09375,0.296875 0.3125,0.296875 0.21875,0 0.453125,-0.171875 0.453125,-0.5625 C 4.1875,-4 3.765625,-4.40625 3,-4.40625 c -1.3125,0 -1.6875,1.015625 -1.6875,1.453125 0,0.78125 0.734375,0.921875 1.03125,0.984375 0.515625,0.109375 1.03125,0.21875 1.03125,0.765625 0,0.25 -0.21875,1.09375 -1.421875,1.09375 -0.140625,0 -0.90625,0 -1.140625,-0.53125 0.390625,0.046875 0.640625,-0.25 0.640625,-0.53125 0,-0.21875 -0.171875,-0.34375 -0.375,-0.34375 -0.265625,0 -0.5625,0.203125 -0.5625,0.65625 0,0.5625 0.578125,0.96875 1.421875,0.96875 1.625,0 2.015625,-1.203125 2.015625,-1.65625 0,-0.359375 -0.1875,-0.609375 -0.3125,-0.71875 -0.265625,-0.28125 -0.5625,-0.34375 -1,-0.421875 -0.359375,-0.078125 -0.75,-0.15625 -0.75,-0.609375 C 1.890625,-3.578125 2.125,-4.1875 3,-4.1875 c 0.25,0 0.75,0.078125 0.890625,0.453125 z m 0,0"
   id="id-f75ce15b-ffe8-4813-9b92-c1f186d592eb" />
      </g></g>
    <g
   style="fill:#000000;fill-opacity:1"
   id="id-ed8e2bf1-64c8-4574-b218-d75e74408a71">
      <g
   transform="translate(153.382,136.259)"
   id="g2612"><path
   style="stroke:none"
   d="m 1.90625,-2.328125 c 0.546875,0 0.9375,0.375 0.9375,1.125 0,0.859375 -0.515625,1.125 -0.90625,1.125 -0.28125,0 -0.90625,-0.078125 -1.1875,-0.5 0.328125,0 0.40625,-0.234375 0.40625,-0.390625 0,-0.21875 -0.171875,-0.375 -0.390625,-0.375 -0.1875,0 -0.390625,0.125 -0.390625,0.40625 0,0.65625 0.71875,1.078125 1.5625,1.078125 0.96875,0 1.640625,-0.65625 1.640625,-1.34375 0,-0.546875 -0.4375,-1.09375 -1.203125,-1.25 0.71875,-0.265625 0.984375,-0.78125 0.984375,-1.21875 0,-0.546875 -0.625,-0.953125 -1.40625,-0.953125 -0.765625,0 -1.359375,0.375 -1.359375,0.9375 0,0.234375 0.15625,0.359375 0.359375,0.359375 0.21875,0 0.359375,-0.15625 0.359375,-0.34375 0,-0.203125 -0.140625,-0.359375 -0.359375,-0.375 0.25,-0.296875 0.71875,-0.375 0.984375,-0.375 0.3125,0 0.75,0.15625 0.75,0.75 0,0.296875 -0.09375,0.625 -0.28125,0.828125 -0.21875,0.265625 -0.421875,0.28125 -0.765625,0.3125 -0.171875,0.015625 -0.1875,0.015625 -0.21875,0.015625 -0.015625,0 -0.078125,0.015625 -0.078125,0.09375 0,0.09375 0.0625,0.09375 0.1875,0.09375 z m 0,0"
   id="id-e448dc4e-589b-4690-9a68-58d2dcd3a609" />
      </g></g>
  </g>
</g><g
   transform="matrix(0.75499104,0,0,0.83598426,366.37068,153.32994)"
   ns8:version="1.8.2"
   ns8:texconverter="pdflatex"
   ns8:pdfconverter="inkscape"
   ns8:text="$s_4$"
   ns8:preamble="/usr/share/inkscape/extensions/textext/default_packages.tex"
   ns8:scale="0.41643904828039163"
   ns8:alignment="middle center"
   ns8:stroke-to-path="0"
   ns8:inkscapeversion="1.2.2"
   ns8:jacobian_sqrt="0.555250840534258"
   id="g7874"><defs
   id="id-1543e15e-ad6e-464c-adb3-637283d9b5fa">
    <g
   id="id-a73b22eb-9a89-4a60-8878-890a539fe4ef">
      <symbol
   overflow="visible"
   id="id-97c6114b-4474-4da8-afc5-5ecd84bed3dc">
        <path
   style="stroke:none"
   d=""
   id="id-34dd07e0-3586-4c55-97a5-2ebb0d809fd8" />
      </symbol>
      <symbol
   overflow="visible"
   id="id-75974a58-388c-49f6-87ad-d41503277171">
        <path
   style="stroke:none"
   d="M 3.890625,-3.734375 C 3.625,-3.71875 3.421875,-3.5 3.421875,-3.28125 c 0,0.140625 0.09375,0.296875 0.3125,0.296875 0.21875,0 0.453125,-0.171875 0.453125,-0.5625 C 4.1875,-4 3.765625,-4.40625 3,-4.40625 c -1.3125,0 -1.6875,1.015625 -1.6875,1.453125 0,0.78125 0.734375,0.921875 1.03125,0.984375 0.515625,0.109375 1.03125,0.21875 1.03125,0.765625 0,0.25 -0.21875,1.09375 -1.421875,1.09375 -0.140625,0 -0.90625,0 -1.140625,-0.53125 0.390625,0.046875 0.640625,-0.25 0.640625,-0.53125 0,-0.21875 -0.171875,-0.34375 -0.375,-0.34375 -0.265625,0 -0.5625,0.203125 -0.5625,0.65625 0,0.5625 0.578125,0.96875 1.421875,0.96875 1.625,0 2.015625,-1.203125 2.015625,-1.65625 0,-0.359375 -0.1875,-0.609375 -0.3125,-0.71875 -0.265625,-0.28125 -0.5625,-0.34375 -1,-0.421875 -0.359375,-0.078125 -0.75,-0.15625 -0.75,-0.609375 C 1.890625,-3.578125 2.125,-4.1875 3,-4.1875 c 0.25,0 0.75,0.078125 0.890625,0.453125 z m 0,0"
   id="id-4f548179-5325-476c-baea-c3d7a8a01c30" />
      </symbol>
      <symbol
   overflow="visible"
   id="id-396d5b73-ed00-4f37-aea0-935d2e381e89">
        <path
   style="stroke:none"
   d=""
   id="id-1ffe5e87-05f1-42c6-9058-d5ea54a7855a" />
      </symbol>
      <symbol
   overflow="visible"
   id="id-f128a3ab-c811-44b5-95d3-d3c5b10d85e6">
        <path
   style="stroke:none"
   d="m 3.6875,-1.140625 v -0.25 H 2.90625 V -4.5 c 0,-0.140625 0,-0.203125 -0.140625,-0.203125 -0.09375,0 -0.125,0 -0.1875,0.109375 l -2.3125,3.203125 v 0.25 h 2.0625 v 0.5625 c 0,0.25 0,0.328125 -0.578125,0.328125 H 1.5625 V 0 C 1.921875,-0.015625 2.359375,-0.03125 2.609375,-0.03125 2.875,-0.03125 3.3125,-0.015625 3.671875,0 v -0.25 h -0.1875 C 2.90625,-0.25 2.90625,-0.328125 2.90625,-0.578125 v -0.5625 z M 2.375,-3.9375 v 2.546875 H 0.53125 Z m 0,0"
   id="id-2c70da5a-3a99-4b35-ba19-90fe92629ce2" />
      </symbol>
    </g>
  </defs>
  <g
   id="id-94b8fe7c-7a36-4798-a3e1-08830895d769"
   transform="translate(-149.228,-130.359)">
    <g
   style="fill:#000000;fill-opacity:1"
   id="id-a1bf0431-49a6-49c7-b9a1-f3442ab146c4">
      <g
   transform="translate(148.712,134.765)"
   id="g3028"><path
   style="stroke:none"
   d="M 3.890625,-3.734375 C 3.625,-3.71875 3.421875,-3.5 3.421875,-3.28125 c 0,0.140625 0.09375,0.296875 0.3125,0.296875 0.21875,0 0.453125,-0.171875 0.453125,-0.5625 C 4.1875,-4 3.765625,-4.40625 3,-4.40625 c -1.3125,0 -1.6875,1.015625 -1.6875,1.453125 0,0.78125 0.734375,0.921875 1.03125,0.984375 0.515625,0.109375 1.03125,0.21875 1.03125,0.765625 0,0.25 -0.21875,1.09375 -1.421875,1.09375 -0.140625,0 -0.90625,0 -1.140625,-0.53125 0.390625,0.046875 0.640625,-0.25 0.640625,-0.53125 0,-0.21875 -0.171875,-0.34375 -0.375,-0.34375 -0.265625,0 -0.5625,0.203125 -0.5625,0.65625 0,0.5625 0.578125,0.96875 1.421875,0.96875 1.625,0 2.015625,-1.203125 2.015625,-1.65625 0,-0.359375 -0.1875,-0.609375 -0.3125,-0.71875 -0.265625,-0.28125 -0.5625,-0.34375 -1,-0.421875 -0.359375,-0.078125 -0.75,-0.15625 -0.75,-0.609375 C 1.890625,-3.578125 2.125,-4.1875 3,-4.1875 c 0.25,0 0.75,0.078125 0.890625,0.453125 z m 0,0"
   id="id-6d5bd5dc-da2f-433f-be03-ac1d0b6a276b" />
      </g></g>
    <g
   style="fill:#000000;fill-opacity:1"
   id="id-b33c4be9-75ba-4b94-b92a-1af5b2ada124">
      <g
   transform="translate(153.382,136.259)"
   id="g3032"><path
   style="stroke:none"
   d="m 3.6875,-1.140625 v -0.25 H 2.90625 V -4.5 c 0,-0.140625 0,-0.203125 -0.140625,-0.203125 -0.09375,0 -0.125,0 -0.1875,0.109375 l -2.3125,3.203125 v 0.25 h 2.0625 v 0.5625 c 0,0.25 0,0.328125 -0.578125,0.328125 H 1.5625 V 0 C 1.921875,-0.015625 2.359375,-0.03125 2.609375,-0.03125 2.875,-0.03125 3.3125,-0.015625 3.671875,0 v -0.25 h -0.1875 C 2.90625,-0.25 2.90625,-0.328125 2.90625,-0.578125 v -0.5625 z M 2.375,-3.9375 v 2.546875 H 0.53125 Z m 0,0"
   id="id-792e2e0f-a725-43e5-8178-26a7b1fd403b" />
      </g></g>
  </g>
</g><g
   transform="matrix(0.71001197,0,0,0.83113064,329.74147,156.65059)"
   ns8:version="1.8.2"
   ns8:texconverter="pdflatex"
   ns8:pdfconverter="inkscape"
   ns8:text="$s_5$"
   ns8:preamble="/usr/share/inkscape/extensions/textext/default_packages.tex"
   ns8:scale="0.39378898161285353"
   ns8:alignment="middle center"
   ns8:stroke-to-path="0"
   ns8:inkscapeversion="1.2.2"
   ns8:jacobian_sqrt="0.5250503752974566"
   id="g6273"><defs
   id="id-c0c330b2-3895-4557-87c6-846456f1d4eb">
    <g
   id="id-7801da50-0103-491a-a661-e09ff25562a5">
      <symbol
   overflow="visible"
   id="id-f1ae9a29-660c-4a16-8a97-7db25edb4eb2">
        <path
   style="stroke:none"
   d=""
   id="id-94510590-d9d3-4feb-b142-24911c3b5c9f" />
      </symbol>
      <symbol
   overflow="visible"
   id="id-6c6377bc-47ac-4f06-a9c9-6cf498ace98f">
        <path
   style="stroke:none"
   d="M 3.890625,-3.734375 C 3.625,-3.71875 3.421875,-3.5 3.421875,-3.28125 c 0,0.140625 0.09375,0.296875 0.3125,0.296875 0.21875,0 0.453125,-0.171875 0.453125,-0.5625 C 4.1875,-4 3.765625,-4.40625 3,-4.40625 c -1.3125,0 -1.6875,1.015625 -1.6875,1.453125 0,0.78125 0.734375,0.921875 1.03125,0.984375 0.515625,0.109375 1.03125,0.21875 1.03125,0.765625 0,0.25 -0.21875,1.09375 -1.421875,1.09375 -0.140625,0 -0.90625,0 -1.140625,-0.53125 0.390625,0.046875 0.640625,-0.25 0.640625,-0.53125 0,-0.21875 -0.171875,-0.34375 -0.375,-0.34375 -0.265625,0 -0.5625,0.203125 -0.5625,0.65625 0,0.5625 0.578125,0.96875 1.421875,0.96875 1.625,0 2.015625,-1.203125 2.015625,-1.65625 0,-0.359375 -0.1875,-0.609375 -0.3125,-0.71875 -0.265625,-0.28125 -0.5625,-0.34375 -1,-0.421875 -0.359375,-0.078125 -0.75,-0.15625 -0.75,-0.609375 C 1.890625,-3.578125 2.125,-4.1875 3,-4.1875 c 0.25,0 0.75,0.078125 0.890625,0.453125 z m 0,0"
   id="id-f2239cbb-5d4c-4a4e-a422-52c4d20d5ea9" />
      </symbol>
      <symbol
   overflow="visible"
   id="id-72e28ebe-e3ca-4875-a091-96901c71a1f2">
        <path
   style="stroke:none"
   d=""
   id="id-9a669985-e360-4410-bde6-b049b7ecb221" />
      </symbol>
      <symbol
   overflow="visible"
   id="id-a77249ee-eee0-4dde-b4bb-172b48702635">
        <path
   style="stroke:none"
   d="m 1.078125,-3.890625 c 0.359375,0.09375 0.5625,0.09375 0.671875,0.09375 0.921875,0 1.46875,-0.625 1.46875,-0.734375 0,-0.078125 -0.046875,-0.09375 -0.078125,-0.09375 -0.015625,0 -0.03125,0 -0.0625,0.015625 -0.171875,0.0625 -0.53125,0.203125 -1.046875,0.203125 -0.203125,0 -0.5625,-0.015625 -1.015625,-0.1875 C 0.9375,-4.625 0.921875,-4.625 0.921875,-4.625 c -0.09375,0 -0.09375,0.078125 -0.09375,0.1875 v 2.046875 c 0,0.125 0,0.203125 0.109375,0.203125 0.0625,0 0.078125,0 0.140625,-0.09375 0.296875,-0.375 0.734375,-0.4375 0.96875,-0.4375 0.421875,0 0.609375,0.328125 0.640625,0.390625 0.125,0.234375 0.171875,0.5 0.171875,0.90625 0,0.203125 0,0.609375 -0.21875,0.921875 -0.171875,0.25 -0.46875,0.421875 -0.8125,0.421875 -0.453125,0 -0.921875,-0.25 -1.09375,-0.71875 0.265625,0.015625 0.40625,-0.15625 0.40625,-0.34375 0,-0.296875 -0.265625,-0.34375 -0.359375,-0.34375 0,0 -0.34375,0 -0.34375,0.375 0,0.625 0.578125,1.25 1.40625,1.25 0.890625,0 1.671875,-0.65625 1.671875,-1.546875 0,-0.78125 -0.59375,-1.5 -1.453125,-1.5 -0.3125,0 -0.671875,0.0625 -0.984375,0.328125 z m 0,0"
   id="id-7a45d394-7649-4757-aa98-f47008eeeb2c" />
      </symbol>
    </g>
  </defs>
  <g
   id="id-929d8c0a-ec50-434d-859b-b5041eaa5ac4"
   transform="translate(-149.228,-130.359)">
    <g
   style="fill:#000000;fill-opacity:1"
   id="id-dc0edc0a-1699-41fa-9a7a-c3585b30b46a">
      <g
   transform="translate(148.712,134.765)"
   id="g3406"><path
   style="stroke:none"
   d="M 3.890625,-3.734375 C 3.625,-3.71875 3.421875,-3.5 3.421875,-3.28125 c 0,0.140625 0.09375,0.296875 0.3125,0.296875 0.21875,0 0.453125,-0.171875 0.453125,-0.5625 C 4.1875,-4 3.765625,-4.40625 3,-4.40625 c -1.3125,0 -1.6875,1.015625 -1.6875,1.453125 0,0.78125 0.734375,0.921875 1.03125,0.984375 0.515625,0.109375 1.03125,0.21875 1.03125,0.765625 0,0.25 -0.21875,1.09375 -1.421875,1.09375 -0.140625,0 -0.90625,0 -1.140625,-0.53125 0.390625,0.046875 0.640625,-0.25 0.640625,-0.53125 0,-0.21875 -0.171875,-0.34375 -0.375,-0.34375 -0.265625,0 -0.5625,0.203125 -0.5625,0.65625 0,0.5625 0.578125,0.96875 1.421875,0.96875 1.625,0 2.015625,-1.203125 2.015625,-1.65625 0,-0.359375 -0.1875,-0.609375 -0.3125,-0.71875 -0.265625,-0.28125 -0.5625,-0.34375 -1,-0.421875 -0.359375,-0.078125 -0.75,-0.15625 -0.75,-0.609375 C 1.890625,-3.578125 2.125,-4.1875 3,-4.1875 c 0.25,0 0.75,0.078125 0.890625,0.453125 z m 0,0"
   id="id-2c27665e-187a-402c-90c8-ec7800c49e6f" />
      </g></g>
    <g
   style="fill:#000000;fill-opacity:1"
   id="id-ad7f3323-7801-473c-bf21-19712bd8bba0">
      <g
   transform="translate(153.382,136.259)"
   id="g3410"><path
   style="stroke:none"
   d="m 1.078125,-3.890625 c 0.359375,0.09375 0.5625,0.09375 0.671875,0.09375 0.921875,0 1.46875,-0.625 1.46875,-0.734375 0,-0.078125 -0.046875,-0.09375 -0.078125,-0.09375 -0.015625,0 -0.03125,0 -0.0625,0.015625 -0.171875,0.0625 -0.53125,0.203125 -1.046875,0.203125 -0.203125,0 -0.5625,-0.015625 -1.015625,-0.1875 C 0.9375,-4.625 0.921875,-4.625 0.921875,-4.625 c -0.09375,0 -0.09375,0.078125 -0.09375,0.1875 v 2.046875 c 0,0.125 0,0.203125 0.109375,0.203125 0.0625,0 0.078125,0 0.140625,-0.09375 0.296875,-0.375 0.734375,-0.4375 0.96875,-0.4375 0.421875,0 0.609375,0.328125 0.640625,0.390625 0.125,0.234375 0.171875,0.5 0.171875,0.90625 0,0.203125 0,0.609375 -0.21875,0.921875 -0.171875,0.25 -0.46875,0.421875 -0.8125,0.421875 -0.453125,0 -0.921875,-0.25 -1.09375,-0.71875 0.265625,0.015625 0.40625,-0.15625 0.40625,-0.34375 0,-0.296875 -0.265625,-0.34375 -0.359375,-0.34375 0,0 -0.34375,0 -0.34375,0.375 0,0.625 0.578125,1.25 1.40625,1.25 0.890625,0 1.671875,-0.65625 1.671875,-1.546875 0,-0.78125 -0.59375,-1.5 -1.453125,-1.5 -0.3125,0 -0.671875,0.0625 -0.984375,0.328125 z m 0,0"
   id="id-e0447abc-e8d7-44d1-ae6a-8797c3443510" />
      </g></g>
  </g>
</g><g
   transform="matrix(0.78156946,0,0,0.85466876,300.3491,189.86432)"
   ns8:version="1.8.2"
   ns8:texconverter="pdflatex"
   ns8:pdfconverter="inkscape"
   ns8:text="$s_6$"
   ns8:preamble="/usr/share/inkscape/extensions/textext/default_packages.tex"
   ns8:scale="0.40960244732849793"
   ns8:alignment="middle center"
   ns8:stroke-to-path="0"
   ns8:inkscapeversion="1.2.2"
   ns8:jacobian_sqrt="0.5461349204866871"
   id="g8550"><defs
   id="id-9c81f13b-82b3-49a5-9ec2-8e65f1effef4">
    <g
   id="id-c1ee790f-afa0-4aee-b88c-1c3bc065a1c8">
      <symbol
   overflow="visible"
   id="id-353368e8-3339-46ec-b1c6-f912d60041f8">
        <path
   style="stroke:none"
   d=""
   id="id-cb5f40cf-bd87-42d8-af34-f8d1563c1373" />
      </symbol>
      <symbol
   overflow="visible"
   id="id-1d924f76-3a95-4ecb-a1c4-21b76c536dcf">
        <path
   style="stroke:none"
   d="M 3.890625,-3.734375 C 3.625,-3.71875 3.421875,-3.5 3.421875,-3.28125 c 0,0.140625 0.09375,0.296875 0.3125,0.296875 0.21875,0 0.453125,-0.171875 0.453125,-0.5625 C 4.1875,-4 3.765625,-4.40625 3,-4.40625 c -1.3125,0 -1.6875,1.015625 -1.6875,1.453125 0,0.78125 0.734375,0.921875 1.03125,0.984375 0.515625,0.109375 1.03125,0.21875 1.03125,0.765625 0,0.25 -0.21875,1.09375 -1.421875,1.09375 -0.140625,0 -0.90625,0 -1.140625,-0.53125 0.390625,0.046875 0.640625,-0.25 0.640625,-0.53125 0,-0.21875 -0.171875,-0.34375 -0.375,-0.34375 -0.265625,0 -0.5625,0.203125 -0.5625,0.65625 0,0.5625 0.578125,0.96875 1.421875,0.96875 1.625,0 2.015625,-1.203125 2.015625,-1.65625 0,-0.359375 -0.1875,-0.609375 -0.3125,-0.71875 -0.265625,-0.28125 -0.5625,-0.34375 -1,-0.421875 -0.359375,-0.078125 -0.75,-0.15625 -0.75,-0.609375 C 1.890625,-3.578125 2.125,-4.1875 3,-4.1875 c 0.25,0 0.75,0.078125 0.890625,0.453125 z m 0,0"
   id="id-7b15e3f4-b37a-40ac-8298-dcb07ba425a5" />
      </symbol>
      <symbol
   overflow="visible"
   id="id-1aa78f3d-e4d8-4613-b8c3-074f2b852124">
        <path
   style="stroke:none"
   d=""
   id="id-871d309c-cceb-45a7-b8f8-f67d83e7cac2" />
      </symbol>
      <symbol
   overflow="visible"
   id="id-ba6eded1-18d9-4c1d-b2a1-331bd399fed8">
        <path
   style="stroke:none"
   d="m 1.046875,-2.28125 c 0,-0.5625 0.046875,-1.078125 0.3125,-1.515625 0.234375,-0.375 0.609375,-0.625 1.0625,-0.625 0.203125,0 0.484375,0.046875 0.625,0.234375 C 2.875,-4.171875 2.71875,-4.046875 2.71875,-3.84375 c 0,0.171875 0.125,0.328125 0.328125,0.328125 0.21875,0 0.34375,-0.140625 0.34375,-0.34375 0,-0.40625 -0.296875,-0.765625 -0.984375,-0.765625 -1,0 -2.03125,0.921875 -2.03125,2.421875 0,1.796875 0.84375,2.34375 1.625,2.34375 0.84375,0 1.578125,-0.65625 1.578125,-1.5625 0,-0.890625 -0.703125,-1.546875 -1.515625,-1.546875 -0.5625,0 -0.859375,0.375 -1.015625,0.6875 z M 2,-0.078125 c -0.359375,0 -0.625,-0.203125 -0.78125,-0.515625 C 1.125,-0.796875 1.0625,-1.15625 1.0625,-1.5625 c 0,-0.6875 0.40625,-1.203125 0.96875,-1.203125 0.3125,0 0.53125,0.125 0.703125,0.375 0.171875,0.265625 0.171875,0.5625 0.171875,0.96875 0,0.390625 0,0.6875 -0.1875,0.96875 -0.15625,0.234375 -0.390625,0.375 -0.71875,0.375 z m 0,0"
   id="id-e37e7c6b-44ac-4fa1-ab6c-5b93385d8395" />
      </symbol>
    </g>
  </defs>
  <g
   id="id-44aa6516-0bab-41e2-8c24-ee873cba2e44"
   transform="translate(-149.228,-130.359)">
    <g
   style="fill:#000000;fill-opacity:1"
   id="id-e356d7ba-87cd-4079-b0d0-a1bb1e25c063">
      <g
   transform="translate(148.712,134.765)"
   id="g3740"><path
   style="stroke:none"
   d="M 3.890625,-3.734375 C 3.625,-3.71875 3.421875,-3.5 3.421875,-3.28125 c 0,0.140625 0.09375,0.296875 0.3125,0.296875 0.21875,0 0.453125,-0.171875 0.453125,-0.5625 C 4.1875,-4 3.765625,-4.40625 3,-4.40625 c -1.3125,0 -1.6875,1.015625 -1.6875,1.453125 0,0.78125 0.734375,0.921875 1.03125,0.984375 0.515625,0.109375 1.03125,0.21875 1.03125,0.765625 0,0.25 -0.21875,1.09375 -1.421875,1.09375 -0.140625,0 -0.90625,0 -1.140625,-0.53125 0.390625,0.046875 0.640625,-0.25 0.640625,-0.53125 0,-0.21875 -0.171875,-0.34375 -0.375,-0.34375 -0.265625,0 -0.5625,0.203125 -0.5625,0.65625 0,0.5625 0.578125,0.96875 1.421875,0.96875 1.625,0 2.015625,-1.203125 2.015625,-1.65625 0,-0.359375 -0.1875,-0.609375 -0.3125,-0.71875 -0.265625,-0.28125 -0.5625,-0.34375 -1,-0.421875 -0.359375,-0.078125 -0.75,-0.15625 -0.75,-0.609375 C 1.890625,-3.578125 2.125,-4.1875 3,-4.1875 c 0.25,0 0.75,0.078125 0.890625,0.453125 z m 0,0"
   id="id-89e5a5e1-e5c8-4e52-aedc-cf4ab9d3de92" />
      </g></g>
    <g
   style="fill:#000000;fill-opacity:1"
   id="id-90a4f668-b8c0-49a6-be1a-a8cd10337606">
      <g
   transform="translate(153.382,136.259)"
   id="g3744"><path
   style="stroke:none"
   d="m 1.046875,-2.28125 c 0,-0.5625 0.046875,-1.078125 0.3125,-1.515625 0.234375,-0.375 0.609375,-0.625 1.0625,-0.625 0.203125,0 0.484375,0.046875 0.625,0.234375 C 2.875,-4.171875 2.71875,-4.046875 2.71875,-3.84375 c 0,0.171875 0.125,0.328125 0.328125,0.328125 0.21875,0 0.34375,-0.140625 0.34375,-0.34375 0,-0.40625 -0.296875,-0.765625 -0.984375,-0.765625 -1,0 -2.03125,0.921875 -2.03125,2.421875 0,1.796875 0.84375,2.34375 1.625,2.34375 0.84375,0 1.578125,-0.65625 1.578125,-1.5625 0,-0.890625 -0.703125,-1.546875 -1.515625,-1.546875 -0.5625,0 -0.859375,0.375 -1.015625,0.6875 z M 2,-0.078125 c -0.359375,0 -0.625,-0.203125 -0.78125,-0.515625 C 1.125,-0.796875 1.0625,-1.15625 1.0625,-1.5625 c 0,-0.6875 0.40625,-1.203125 0.96875,-1.203125 0.3125,0 0.53125,0.125 0.703125,0.375 0.171875,0.265625 0.171875,0.5625 0.171875,0.96875 0,0.390625 0,0.6875 -0.1875,0.96875 -0.15625,0.234375 -0.390625,0.375 -0.71875,0.375 z m 0,0"
   id="id-32ca2dfe-fddf-4605-b1c5-43bd5d1b6d2d" />
      </g></g>
  </g>
</g></svg>
